<svg xmlns="http://www.w3.org/2000/svg" width="201.064" height="201.061" viewBox="0 0 201.064 201.061">
  <g id="Doctor-pana" transform="translate(-36.24 -40.309)">
    <g id="freepik--background-complete--inject-43" transform="translate(36.241 44.458)">
      <path id="Path_71" data-name="Path 71" d="M373.517,282.355s-4.531-3.122-10.336,7.747a143.478,143.478,0,0,0-8.055,17.164s-1.521,2.273-3.075.737-3.631-5.843-6.333-5.133c-2.8.742-3.78,3.831-3.337,8.4s1.045,14.648,1.1,15.558-.467,2.2-1.713,1.325-8.2-8.964-11.844-5.423-.313,16.1.028,17.476.056,1.96-.6,2.287-2.749-2.613-4.83-4.83-4.881-4.429-6.809-2.207S315,347.034,323.617,362.42l4.461,6.869,8.218-.3c17.556-1.7,24.789-7.691,25.512-10.542s-2.688-3.887-5.7-4.331-6.617-.467-6.725-1.209.21-1.288,1.535-1.8,13.533-4.942,14.364-9.954-9.8-6.127-11.2-6.631-.653-1.694.112-2.161,9.384-5.731,13.4-7.985,5.992-4.816,5-7.541c-.957-2.623-5.679-1.867-7.826-2.273s-1.148-2.945-1.148-2.945a142.782,142.782,0,0,0,9.492-16.408c5.609-10.976.322-12.936.322-12.936" transform="translate(-185.693 -173.329)" fill="#f5f5f5"/>
      <path id="Path_72" data-name="Path 72" d="M342.33,379.236c4.149-8.045,9.977-19.133,16.459-31.313s12.329-23.244,16.52-31.266l4.956-9.506,1.349-2.585.355-.672c.084-.149.131-.224.131-.224s-.033.084-.107.238-.191.387-.331.681c-.3.607-.747,1.479-1.307,2.6-1.139,2.263-2.8,5.525-4.886,9.543-4.149,8.045-9.977,19.11-16.454,31.308s-12.334,23.254-16.524,31.266" transform="translate(-199.492 -184.919)" fill="#e0e0e0"/>
      <path id="Path_73" data-name="Path 73" d="M384.88,340a2.691,2.691,0,0,1,.2.56c.112.364.257.9.434,1.554.345,1.316.775,3.145,1.213,5.175s.812,3.808,1.106,5.194c.135.625.252,1.148.345,1.573a2.717,2.717,0,0,1,.1.583,2.5,2.5,0,0,1-.2-.56c-.112-.364-.257-.9-.425-1.554-.331-1.321-.737-3.155-1.176-5.185s-.84-3.8-1.143-5.185c-.14-.625-.257-1.148-.35-1.573A2.389,2.389,0,0,1,384.88,340Z" transform="translate(-222.185 -204.296)" fill="#e0e0e0"/>
      <path id="Path_74" data-name="Path 74" d="M393.76,366.594c0-.065,3.733-1.12,8.339-2.333s8.4-2.179,8.4-2.114-3.733,1.125-8.339,2.357S393.779,366.664,393.76,366.594Z" transform="translate(-226.921 -216.105)" fill="#e0e0e0"/>
      <path id="Path_75" data-name="Path 75" d="M370.64,410.531a2.517,2.517,0,0,1,.6,0l1.647.037c1.4.028,3.3.061,5.418,0s4.027-.135,5.413-.219l1.638-.1a2.765,2.765,0,0,1,.607,0,2.619,2.619,0,0,1-.6.107c-.383.047-.933.112-1.633.177-1.4.126-3.3.257-5.423.294s-4.046-.023-5.432-.1c-.7-.042-1.255-.079-1.643-.117a2.639,2.639,0,0,1-.6-.084Z" transform="translate(-214.591 -241.754)" fill="#e0e0e0"/>
      <path id="Path_76" data-name="Path 76" d="M356.29,384a2.292,2.292,0,0,1,.313.467l.765,1.311c.639,1.115,1.507,2.66,2.45,4.377s1.783,3.267,2.38,4.41c.275.532.509.98.7,1.349a2.164,2.164,0,0,1,.224.513,2.609,2.609,0,0,1-.308-.467l-.77-1.311c-.635-1.111-1.5-2.66-2.445-4.373s-1.783-3.267-2.385-4.41c-.271-.532-.5-.985-.7-1.353A2.619,2.619,0,0,1,356.29,384Z" transform="translate(-206.937 -227.763)" fill="#e0e0e0"/>
      <path id="Path_77" data-name="Path 77" d="M331.48,416a3.979,3.979,0,0,1,.392.6c.257.439.593,1,.989,1.675.826,1.423,1.951,3.4,3.183,5.6s2.333,4.177,3.113,5.6c.373.691.681,1.269.933,1.713a3.845,3.845,0,0,1,.308.649,3.985,3.985,0,0,1-.392-.6l-1-1.7c-.826-1.4-1.951-3.393-3.183-5.6s-2.333-4.172-3.113-5.6c-.373-.691-.681-1.269-.933-1.717A3.726,3.726,0,0,1,331.48,416Z" transform="translate(-193.705 -244.829)" fill="#e0e0e0"/>
      <path id="Path_78" data-name="Path 78" d="M350.33,447.984a4,4,0,0,1,.765-.037l2.086-.028c1.759-.028,4.2-.07,6.874-.2s5.11-.294,6.865-.429L369,447.13a3.956,3.956,0,0,1,.765-.028,4.875,4.875,0,0,1-.751.126c-.49.065-1.2.154-2.077.243-1.75.182-4.2.387-6.869.5s-5.133.145-6.883.121c-.882,0-1.591-.028-2.086-.051A4.453,4.453,0,0,1,350.33,447.984Z" transform="translate(-203.758 -261.413)" fill="#e0e0e0"/>
      <rect id="Rectangle_25" data-name="Rectangle 25" width="42.349" height="58.178" rx="2.41" transform="translate(24.597 18.365) rotate(-25.7)" fill="#e0e0e0"/>
      <rect id="Rectangle_26" data-name="Rectangle 26" width="37.622" height="54.151" transform="translate(27.267 18.461) rotate(-25.7)" fill="#fafafa"/>
      <path id="Path_79" data-name="Path 79" d="M130.78,60.756a4.6,4.6,0,0,0-4.821-.5l-1.027-2.063a3.164,3.164,0,0,0-4.228-1.479h0a3.169,3.169,0,0,0-1.479,4.223l1.041,2.165-.723.364A4.606,4.606,0,0,0,117,67.523V68.6l14.76-7.1Zm-7.877.336a1.7,1.7,0,1,1,.872-.973A1.708,1.708,0,0,1,122.9,61.092Z" transform="translate(-79.314 -53.038)" fill="#ebebeb"/>
      <path id="Path_80" data-name="Path 80" d="M118.206,90.6c.028.061-2,1.1-4.541,2.333a47.248,47.248,0,0,1-4.667,2.1c-.047-.061,2-1.1,4.541-2.333A49.6,49.6,0,0,1,118.206,90.6Z" transform="translate(-75.046 -71.277)" fill="#e0e0e0"/>
      <path id="Path_81" data-name="Path 81" d="M115.063,98.83a12.633,12.633,0,0,1-2.165,1.176,12.456,12.456,0,0,1-2.268.957,13.024,13.024,0,0,1,2.165-1.176A12.456,12.456,0,0,1,115.063,98.83Z" transform="translate(-75.917 -75.67)" fill="#e0e0e0"/>
      <path id="Path_82" data-name="Path 82" d="M141.622,85.809c.028.061-5.675,2.87-12.74,6.267s-12.814,6.109-12.842,6.067,5.675-2.865,12.74-6.267S141.594,85.748,141.622,85.809Z" transform="translate(-78.802 -68.724)" fill="#e0e0e0"/>
      <path id="Path_83" data-name="Path 83" d="M144.132,91c.033.061-5.675,2.865-12.735,6.267s-12.814,6.109-12.847,6.067,5.675-2.865,12.74-6.267S144.1,90.957,144.132,91Z" transform="translate(-80.141 -71.493)" fill="#e0e0e0"/>
      <path id="Path_84" data-name="Path 84" d="M146.652,96.269c.028.061-5.675,2.865-12.74,6.267S121.1,108.645,121.07,108.6s5.675-2.865,12.74-6.267S146.624,96.208,146.652,96.269Z" transform="translate(-81.485 -74.303)" fill="#e0e0e0"/>
      <path id="Path_85" data-name="Path 85" d="M149.172,101.5c.028.061-5.675,2.865-12.74,6.263s-12.814,6.109-12.842,6.067,5.67-2.865,12.74-6.267S149.139,101.438,149.172,101.5Z" transform="translate(-82.829 -77.093)" fill="#e0e0e0"/>
      <path id="Path_86" data-name="Path 86" d="M151.682,106.719c.033.061-5.675,2.87-12.735,6.267s-12.814,6.109-12.847,6.067,5.675-2.865,12.74-6.267S151.654,106.658,151.682,106.719Z" transform="translate(-84.167 -79.877)" fill="#e0e0e0"/>
      <path id="Path_87" data-name="Path 87" d="M154.2,112c.028.061-5.675,2.865-12.74,6.267s-12.814,6.109-12.842,6.067,5.675-2.865,12.74-6.267S154.174,111.914,154.2,112Z" transform="translate(-85.511 -82.692)" fill="#e0e0e0"/>
      <path id="Path_88" data-name="Path 88" d="M143.665,129.86a2.554,2.554,0,0,1-.467.285l-1.372.714c-1.148.574-2.739,1.358-4.5,2.207s-3.374,1.605-4.541,2.147l-1.4.625a2.705,2.705,0,0,1-.523.2,2.361,2.361,0,0,1,.467-.285l1.353-.7c1.148-.574,2.744-1.358,4.508-2.207s3.369-1.605,4.536-2.147l1.4-.621A2.37,2.37,0,0,1,143.665,129.86Z" transform="translate(-86.706 -92.219)" fill="#e0e0e0"/>
      <path id="Path_89" data-name="Path 89" d="M162.291,71.62a10.771,10.771,0,0,1-2.021,1.111,10.99,10.99,0,0,1-2.1.877,10.77,10.77,0,0,1,2-1.1A10.634,10.634,0,0,1,162.291,71.62Z" transform="translate(-101.272 -61.158)" fill="#e0e0e0"/>
      <path id="Path_90" data-name="Path 90" d="M143.725,147.25a27.88,27.88,0,0,1-3.267,1.708,28.063,28.063,0,0,1-3.379,1.489,28.2,28.2,0,0,1,3.267-1.708,28.2,28.2,0,0,1,3.379-1.489Z" transform="translate(-90.024 -101.494)" fill="#e0e0e0"/>
      <path id="Path_91" data-name="Path 91" d="M146.363,151.76a28.864,28.864,0,0,1-3.323,1.736,28.676,28.676,0,0,1-3.43,1.517,28.761,28.761,0,0,1,3.323-1.736,30.615,30.615,0,0,1,3.43-1.517Z" transform="translate(-91.373 -103.899)" fill="#e0e0e0"/>
      <path id="Path_92" data-name="Path 92" d="M188.6,126.66a6.6,6.6,0,0,1-1.554.882,6.73,6.73,0,0,1-1.657.663,13.164,13.164,0,0,1,3.211-1.545Z" transform="translate(-115.789 -90.513)" fill="#e0e0e0"/>
      <path id="Path_93" data-name="Path 93" d="M190.9,130.82a6.8,6.8,0,0,1-1.554.882,6.65,6.65,0,0,1-1.661.663,6.6,6.6,0,0,1,1.554-.882A6.44,6.44,0,0,1,190.9,130.82Z" transform="translate(-117.011 -92.731)" fill="#e0e0e0"/>
      <path id="Path_94" data-name="Path 94" d="M146.293,160a6.252,6.252,0,0,1-1.5.854,6.594,6.594,0,0,1-1.605.639,12,12,0,0,1,3.1-1.493Z" transform="translate(-93.282 -108.294)" fill="#e0e0e0"/>
      <path id="Path_95" data-name="Path 95" d="M194.533,135.69a6.921,6.921,0,0,1-2.333,1.115A6.921,6.921,0,0,1,194.533,135.69Z" transform="translate(-119.421 -95.329)" fill="#e0e0e0"/>
      <path id="Path_96" data-name="Path 96" d="M148.17,169.127a1.441,1.441,0,0,1,.131-.1l.392-.261,1.507-.971,5.418-3.4.107-.07.047.117a3.075,3.075,0,0,1,.056,2.058,2.506,2.506,0,0,1-3.8,1.358,2.17,2.17,0,0,1-.77-2.273,1.909,1.909,0,0,1,.467-.849,1.212,1.212,0,0,1,.177-.168.934.934,0,0,1,.21-.145.341.341,0,0,1,.327,0,.508.508,0,0,1,.182.215,4.009,4.009,0,0,1,.467,1.727,4.1,4.1,0,0,1-.266,1.7,2.6,2.6,0,0,1-1,1.33,1.489,1.489,0,0,1-1.577-.033,2.245,2.245,0,0,1-.933-1.171,5.455,5.455,0,0,1,0-2.637l.028-.177.121.135a3.659,3.659,0,0,1,.887,2.011,3.887,3.887,0,0,1-.154,1.657,3.514,3.514,0,0,1-.467.933,2.179,2.179,0,0,1-.173.21c-.042.047-.061.07-.065.065a4.274,4.274,0,0,0,.616-1.241,3.827,3.827,0,0,0,.112-1.61,3.547,3.547,0,0,0-.877-1.913l.145-.047a5.33,5.33,0,0,0,0,2.543,2.039,2.039,0,0,0,.854,1.05,1.26,1.26,0,0,0,1.349.028,2.4,2.4,0,0,0,.905-1.223,3.971,3.971,0,0,0-.205-3.229.378.378,0,0,0-.093-.112.1.1,0,0,0-.1,0,1.148,1.148,0,0,0-.3.252,1.7,1.7,0,0,0-.392.742,1.941,1.941,0,0,0,.677,2.021,2.277,2.277,0,0,0,3.449-1.232,2.87,2.87,0,0,0-.042-1.909l.154.051-5.465,3.341-1.54.933-.411.238A.56.56,0,0,1,148.17,169.127Z" transform="translate(-95.938 -110.604)" fill="#e0e0e0"/>
      <path id="Path_97" data-name="Path 97" d="M193.558,146.653a1.6,1.6,0,0,1-.075.439,1.867,1.867,0,0,1-.215.495,1.036,1.036,0,0,1-.583.443.7.7,0,0,1-.467,0,.933.933,0,0,1-.387-.3,8.865,8.865,0,0,1-.523-.887c-.35-.644-.742-1.353-1.157-2.119l.21-.047c-.037,1.069-.079,2.235-.121,3.458,0,.294-.023.579-.033.863v.467l-.21-.434c-.639-1.311-1.232-2.539-1.755-3.607h.2a12.264,12.264,0,0,0-.443,3.267,7.949,7.949,0,0,1,0,1.255,1.479,1.479,0,0,1-.065-.327,9.231,9.231,0,0,1-.079-.933,11.382,11.382,0,0,1,.364-3.309l.07-.271.121.252c.532,1.064,1.134,2.282,1.783,3.589l-.229.047c0-.285.023-.569.033-.863.051-1.223.1-2.389.14-3.458v-.42l.2.369c.411.77.789,1.489,1.129,2.133a9.37,9.37,0,0,0,.467.882.63.63,0,0,0,.677.285,1.2,1.2,0,0,0,.765-.831,3.521,3.521,0,0,1,.191-.434Z" transform="translate(-117.098 -99.894)" fill="#e0e0e0"/>
      <path id="Path_98" data-name="Path 98" d="M190.015,145.648a51.725,51.725,0,0,1-4.3,3.075c-2.431,1.643-4.4,2.926-4.438,2.87a52.075,52.075,0,0,1,4.3-3.071C188.009,146.885,189.969,145.6,190.015,145.648Z" transform="translate(-113.597 -100.639)" fill="#e0e0e0"/>
      <path id="Path_99" data-name="Path 99" d="M197.668,146.53a38.656,38.656,0,0,1-3.155,2.87,37.954,37.954,0,0,1-3.313,2.688,37.743,37.743,0,0,1,3.155-2.87A36.4,36.4,0,0,1,197.668,146.53Z" transform="translate(-118.888 -101.11)" fill="#e0e0e0"/>
      <path id="Path_100" data-name="Path 100" d="M384.076,190.628c-1.918,4.807-4.993,12.6-6.4,16.146a2.044,2.044,0,0,0,1.148,2.66l13.132,5.231a2.053,2.053,0,0,0,2.669-1.148l6.37-16a4.564,4.564,0,0,0-2.548-5.922h0l.933-2.333-8.6-3.425-.887,2.226h-.033a4.564,4.564,0,0,0-5.787,2.562Z" transform="translate(-218.264 -122.076)" fill="#f5f5f5"/>
      <path id="Path_101" data-name="Path 101" d="M405.185,186.44l-.425,1.073,8.479,3.729.546-1.377Z" transform="translate(-232.788 -122.396)" fill="#e0e0e0"/>
      <path id="Path_102" data-name="Path 102" d="M1.4,0h8.624a1.4,1.4,0,0,1,1.4,1.4V3.687a.9.9,0,0,1-.9.9H.9a.9.9,0,0,1-.9-.9V1.4A1.4,1.4,0,0,1,1.4,0Z" transform="matrix(0.929, 0.37, -0.37, 0.929, 172.831, 60.079)" fill="#ebebeb"/>
      <path id="Path_103" data-name="Path 103" d="M405.87,183.411a10.546,10.546,0,0,1,.733-2.17,11.03,11.03,0,0,1,.957-2.081,10.55,10.55,0,0,1-.733,2.17,11.032,11.032,0,0,1-.957,2.081Z" transform="translate(-233.38 -118.513)" fill="#e0e0e0"/>
      <path id="Path_104" data-name="Path 104" d="M408.29,184.381a10.736,10.736,0,0,1,.737-2.17,11.031,11.031,0,0,1,.957-2.081,11.12,11.12,0,0,1-.733,2.17A10.736,10.736,0,0,1,408.29,184.381Z" transform="translate(-234.671 -119.03)" fill="#e0e0e0"/>
      <path id="Path_105" data-name="Path 105" d="M410.72,185.347a21.22,21.22,0,0,1,1.694-4.247,11.117,11.117,0,0,1-.733,2.17,10.416,10.416,0,0,1-.961,2.077Z" transform="translate(-235.967 -119.548)" fill="#e0e0e0"/>
      <path id="Path_106" data-name="Path 106" d="M413.15,186.311a11.01,11.01,0,0,1,.733-2.17,10.729,10.729,0,0,1,.961-2.081,10.9,10.9,0,0,1-.733,2.17,11.2,11.2,0,0,1-.961,2.081Z" transform="translate(-237.263 -120.06)" fill="#e0e0e0"/>
      <path id="Path_107" data-name="Path 107" d="M415.58,187.281a10.9,10.9,0,0,1,.733-2.17,10.546,10.546,0,0,1,.961-2.081,10.959,10.959,0,0,1-.737,2.17,11.2,11.2,0,0,1-.957,2.081Z" transform="translate(-238.559 -120.577)" fill="#e0e0e0"/>
      <path id="Path_108" data-name="Path 108" d="M418,188.247a10.738,10.738,0,0,1,.733-2.17,10.9,10.9,0,0,1,.957-2.077,10.73,10.73,0,0,1-.733,2.17,10.9,10.9,0,0,1-.957,2.077Z" transform="translate(-239.85 -121.094)" fill="#e0e0e0"/>
      <path id="Path_109" data-name="Path 109" d="M420.44,189.211a10.733,10.733,0,0,1,.733-2.17,11.2,11.2,0,0,1,.957-2.081,10.549,10.549,0,0,1-.733,2.17A11.032,11.032,0,0,1,420.44,189.211Z" transform="translate(-241.151 -121.606)" fill="#e0e0e0"/>
      <path id="Path_110" data-name="Path 110" d="M422.86,190.141a10.734,10.734,0,0,1,.737-2.17,11.031,11.031,0,0,1,.957-2.081,10.9,10.9,0,0,1-.733,2.17A10.54,10.54,0,0,1,422.86,190.141Z" transform="translate(-242.442 -122.102)" fill="#e0e0e0"/>
      <rect id="Rectangle_27" data-name="Rectangle 27" width="13.262" height="8.773" rx="1.48" transform="matrix(0.929, 0.37, -0.37, 0.929, 167.28, 71.832)" fill="#ebebeb"/>
      <path id="Path_111" data-name="Path 111" d="M400.395,216.107a1.3,1.3,0,0,1,.047-.14l.14-.383c.135-.35.317-.835.546-1.437l2-5.133.056.121-10.808-4.275.154-.07h0v.033l-.023.056-.047.117-.093.238-.187.467-.369.933c-.243.611-.467,1.213-.719,1.806l-1.372,3.407-.061-.145,7.728,3.141,2.226.933.593.252.21.1a1.3,1.3,0,0,1-.2-.061l-.583-.219-2.221-.854-7.84-3.061-.1-.042.042-.1c.429-1.087.882-2.226,1.349-3.411.238-.593.467-1.195.719-1.806.121-.308.243-.616.369-.933l.187-.467.093-.233.047-.117.023-.061v-.028h0l.159-.07,10.794,4.284.089.037-.033.089c-.882,2.147-1.6,3.911-2.114,5.166-.247.588-.443,1.059-.583,1.4-.065.145-.117.261-.154.359S400.4,216.112,400.395,216.107Z" transform="translate(-224.633 -132.113)" fill="#e0e0e0"/>
      <path id="Path_112" data-name="Path 112" d="M404.979,214.171a31.179,31.179,0,0,1-3.733-1.349,32.716,32.716,0,0,1-3.626-1.573,32.577,32.577,0,0,1,3.733,1.349,33.221,33.221,0,0,1,3.626,1.573Z" transform="translate(-228.98 -135.628)" fill="#e0e0e0"/>
      <path id="Path_113" data-name="Path 113" d="M403.915,216.846a32.945,32.945,0,0,1-3.733-1.349,30.9,30.9,0,0,1-3.621-1.577,32.936,32.936,0,0,1,3.733,1.349A30.89,30.89,0,0,1,403.915,216.846Z" transform="translate(-228.415 -137.052)" fill="#e0e0e0"/>
      <path id="Path_114" data-name="Path 114" d="M402.889,219.411a31.962,31.962,0,0,1-3.733-1.344,32.663,32.663,0,0,1-3.626-1.577,32.194,32.194,0,0,1,3.733,1.349,32.714,32.714,0,0,1,3.626,1.573Z" transform="translate(-227.865 -138.423)" fill="#e0e0e0"/>
      <path id="Path_115" data-name="Path 115" d="M412.2,193.957a36.594,36.594,0,0,1-4.051-1.479,39.409,39.409,0,0,1-3.962-1.708,37.769,37.769,0,0,1,4.051,1.479,39.4,39.4,0,0,1,3.962,1.708Z" transform="translate(-232.484 -124.705)" fill="#e0e0e0"/>
      <path id="Path_116" data-name="Path 116" d="M380.15,209.587a4.671,4.671,0,0,1,.257-.775c.2-.527.467-1.227.793-2.077.677-1.745,1.633-4.158,2.7-6.813.537-1.325,1.05-2.585,1.517-3.733a8.092,8.092,0,0,1,1.7-2.837,3.579,3.579,0,0,1,1.983-1.013,2.607,2.607,0,0,1,.611,0,.967.967,0,0,1,.21.047,5.424,5.424,0,0,0-.807.047,3.649,3.649,0,0,0-1.867,1.041,8.233,8.233,0,0,0-1.619,2.8l-1.493,3.733c-1.069,2.66-2.049,5.059-2.767,6.79-.35.835-.644,1.526-.863,2.049a5.992,5.992,0,0,1-.355.742Z" transform="translate(-219.663 -125.533)" fill="#fff"/>
      <path id="Path_117" data-name="Path 117" d="M394.3,240.395a3.732,3.732,0,0,1-.518-.42c-.159-.14-.355-.313-.593-.5s-.5-.415-.812-.635a23.224,23.224,0,0,0-2.221-1.47,24.241,24.241,0,0,0-2.935-1.428,25.2,25.2,0,0,0-3.117-.985,22.512,22.512,0,0,0-2.627-.467c-.378-.056-.723-.07-1.022-.093s-.56-.042-.775-.047a4.048,4.048,0,0,1-.663-.051,3.1,3.1,0,0,1,.663-.042,7.327,7.327,0,0,1,.779,0,6.379,6.379,0,0,1,1.036.061,19.6,19.6,0,0,1,2.66.411,23.11,23.11,0,0,1,3.155.971,22.7,22.7,0,0,1,2.959,1.461,20.878,20.878,0,0,1,2.217,1.531c.308.233.56.467.793.667s.42.378.569.532A3.446,3.446,0,0,1,394.3,240.395Z" transform="translate(-219.06 -147.894)" fill="#fff"/>
      <path id="Path_118" data-name="Path 118" d="M69.365,377.126c10.514-5.329,14.443-17.43,15.642-28.639.2-1.867.681-3.8.028-5.563s-2.562-3.169-4.34-2.618c-1.475.467-2.305,1.979-3.267,3.2a11,11,0,0,1-4.956,3.551,4.134,4.134,0,0,1-3.873-.2c-1.479-1.111-1.353-3.355-1.083-5.208l1.531-10.327a17.266,17.266,0,0,0,.219-5.577,5.806,5.806,0,0,0-3.057-4.4,3.519,3.519,0,0,0-4.643,1.727,17.069,17.069,0,0,0-.378,2.3,1.96,1.96,0,0,1-1.4,1.671,2.289,2.289,0,0,1-1.913-1.134,24.892,24.892,0,0,1-3.477-7.3,34.565,34.565,0,0,0-3.145-7.467A10.148,10.148,0,0,0,45,306.353c-2.641-.527-5.689.709-6.725,3.22s.1,5.381,1.461,7.728a41.738,41.738,0,0,0,7.467,9.422,3.445,3.445,0,0,1,1.218,1.75c.229,1.293-1.115,2.333-2.394,2.585a21.274,21.274,0,0,1-4.387-.126c-1.465-.037-3.122.383-3.864,1.671-1.027,1.783.275,3.995,1.647,5.511a35.859,35.859,0,0,0,9.613,7.537,12.037,12.037,0,0,1,3.626,2.441,3.46,3.46,0,0,1,.546,4.083,3.54,3.54,0,0,1-4,.933,22.958,22.958,0,0,1-3.841-2.128c-2.413-1.321-5.721-1.61-7.663.359a5.905,5.905,0,0,0-1.358,5.091A13.63,13.63,0,0,0,38.5,361.4a35.9,35.9,0,0,0,13.687,12.838c5.614,2.884,11,4.2,17.178,2.9" transform="translate(-36.243 -186.286)" fill="#f5f5f5"/>
      <path id="Path_119" data-name="Path 119" d="M74.258,384.223c.224-4.475-.149-7.294-1-13.155a168.467,168.467,0,0,0-4.055-18.8q-.672-2.464-1.316-4.872c-.439-1.6-.868-3.183-1.4-4.7A85.125,85.125,0,0,0,63,334.1c-1.241-2.679-2.515-5.171-3.733-7.5s-2.389-4.466-3.537-6.375a66.655,66.655,0,0,0-6.1-8.6c-.793-.957-1.437-1.675-1.867-2.156l-.5-.546a1.345,1.345,0,0,0-.182-.177,1.325,1.325,0,0,0,.154.2l.467.569c.425.495,1.05,1.232,1.829,2.2a70.265,70.265,0,0,1,5.992,8.633c1.134,1.913,2.291,4.06,3.491,6.384s2.459,4.825,3.687,7.5a83.21,83.21,0,0,1,3.477,8.563c.513,1.517.933,3.089,1.4,4.667s.868,3.229,1.311,4.872A170.74,170.74,0,0,1,72.966,371.1c.868,5.838,1.265,8.633,1.073,13.094" transform="translate(-42.023 -187.629)" fill="#e0e0e0"/>
      <path id="Path_120" data-name="Path 120" d="M88.48,358.582a3.8,3.8,0,0,0,.294-.765c.168-.5.392-1.227.653-2.133.523-1.806,1.157-4.326,1.867-7.1s1.363-5.287,1.913-7.079c.271-.9.5-1.624.663-2.123a3.56,3.56,0,0,0,.219-.789,3.6,3.6,0,0,0-.345.742c-.2.467-.467,1.2-.765,2.1-.611,1.778-1.325,4.284-2.016,7.065l-1.773,7.131c-.215.854-.4,1.577-.546,2.156A3.734,3.734,0,0,0,88.48,358.582Z" transform="translate(-64.103 -203.544)" fill="#e0e0e0"/>
      <path id="Path_121" data-name="Path 121" d="M38.81,364.67a5.824,5.824,0,0,0,.933.247c.607.14,1.479.341,2.553.621,2.147.541,5.087,1.4,8.288,2.487s6.067,2.2,8.1,3.066c1.027.425,1.867.789,2.413,1.041a5.391,5.391,0,0,0,.9.359,5.285,5.285,0,0,0-.84-.467c-.551-.285-1.358-.686-2.371-1.143-2.025-.933-4.877-2.072-8.087-3.169a82.716,82.716,0,0,0-8.339-2.422c-1.083-.252-1.969-.415-2.581-.518A5.32,5.32,0,0,0,38.81,364.67Z" transform="translate(-37.612 -217.453)" fill="#e0e0e0"/>
      <path id="Path_122" data-name="Path 122" d="M102.67,408.459a3.063,3.063,0,0,0,.205-.271l.532-.8c.467-.7,1.087-1.731,1.867-3.01,1.535-2.567,3.547-6.174,5.707-10.187s4.139-7.639,5.6-10.234l1.759-3.066.467-.835a1.4,1.4,0,0,0,.145-.3,2.481,2.481,0,0,0-.205.266l-.523.784c-.467.7-1.092,1.731-1.867,3.015-1.535,2.562-3.547,6.174-5.707,10.187s-4.135,7.634-5.6,10.229c-.728,1.26-1.321,2.3-1.764,3.066-.187.336-.345.611-.467.835A1.282,1.282,0,0,0,102.67,408.459Z" transform="translate(-71.671 -225.496)" fill="#e0e0e0"/>
      <path id="Path_123" data-name="Path 123" d="M38,409.81a1.093,1.093,0,0,0,.3.177l.873.439L42.405,412c2.73,1.33,6.477,3.215,10.617,5.3s7.933,3.943,10.668,5.217c1.4.639,2.5,1.143,3.267,1.479l.91.364a1.338,1.338,0,0,0,.322.112,1.279,1.279,0,0,0-.294-.177l-.877-.434-3.229-1.582c-2.73-1.33-6.477-3.215-10.616-5.3s-7.919-3.925-10.677-5.217c-1.4-.639-2.5-1.143-3.267-1.479l-.9-.378a1.331,1.331,0,0,0-.327-.1Z" transform="translate(-37.18 -241.528)" fill="#e0e0e0"/>
    </g>
    <g id="freepik--Floor--inject-43" transform="translate(36.24 240.628)">
      <path id="Path_124" data-name="Path 124" d="M237.3,469.691c0,.065-45.014.121-100.528.121s-100.537-.042-100.537-.121,45-.121,100.537-.121S237.3,469.626,237.3,469.691Z" transform="translate(-36.24 -469.57)" fill="#263238"/>
    </g>
    <g id="freepik--Character--inject-43" transform="translate(88.653 40.309)">
      <path id="Path_125" data-name="Path 125" d="M177.636,334.656s-13.272,9.016-14,30.062c-.243,7.061,3.225,29.54,3.225,29.54l77.619.313-14.518-60.25-24.42-5.6Z" transform="translate(-156.592 -194.13)" fill="#063"/>
      <path id="Path_126" data-name="Path 126" d="M245.1,374.92,234.53,419.033l26.432.177Z" transform="translate(-194.409 -218.771)" fill="#263238"/>
      <path id="Path_127" data-name="Path 127" d="M256.275,354.45a9.474,9.474,0,0,1,.14,1.442c.061.971.135,2.165.219,3.491s.131,2.6.149,3.491a8.288,8.288,0,0,1-.033,1.451,9.475,9.475,0,0,1-.14-1.442c-.061-.966-.135-2.165-.219-3.486s-.131-2.6-.145-3.5A8.068,8.068,0,0,1,256.275,354.45Z" transform="translate(-205.981 -207.853)" fill="#263238"/>
      <path id="Path_128" data-name="Path 128" d="M264.611,364.78c0,.023-.173.061-.467.224a2.249,2.249,0,0,0-.882.98,1.9,1.9,0,0,0,.093,1.867,1.979,1.979,0,0,0,3.649-.583,1.89,1.89,0,0,0-.467-1.792,2.24,2.24,0,0,0-1.143-.658c-.308-.07-.467-.051-.495-.075s.047,0,.131-.028a1.355,1.355,0,0,1,.383,0,2.2,2.2,0,0,1,1.246.63,2.236,2.236,0,0,1,.532.831,2.035,2.035,0,0,1,.051,1.139,2.2,2.2,0,0,1-4.06.644,2.034,2.034,0,0,1-.3-1.1,2.239,2.239,0,0,1,.247-.933,2.207,2.207,0,0,1,.989-.989,1.329,1.329,0,0,1,.359-.126C264.564,364.775,264.606,364.771,264.611,364.78Z" transform="translate(-209.529 -213.321)" fill="#263238"/>
      <path id="Path_129" data-name="Path 129" d="M282.751,416.392a4.342,4.342,0,0,0-.467.224,2.245,2.245,0,0,0-.877.98,1.9,1.9,0,0,0,.093,1.867,1.979,1.979,0,0,0,3.649-.583,1.9,1.9,0,0,0-.467-1.792,2.23,2.23,0,0,0-1.139-.658c-.313-.07-.495-.051-.495-.075a.327.327,0,0,1,.131-.028,1.518,1.518,0,0,1,.378,0,2.207,2.207,0,0,1,1.251.635,2.169,2.169,0,0,1,.527.826,1.955,1.955,0,0,1,.051,1.139,2.189,2.189,0,0,1-4.055.644,1.954,1.954,0,0,1-.3-1.1,2.174,2.174,0,0,1,.247-.933,2.207,2.207,0,0,1,.989-.989,1.446,1.446,0,0,1,.359-.126A.466.466,0,0,1,282.751,416.392Z" transform="translate(-219.209 -240.848)" fill="#263238"/>
      <path id="Path_130" data-name="Path 130" d="M200.64,379a1.265,1.265,0,0,1-.168.205c-.112.131-.28.322-.509.56a20.993,20.993,0,0,1-2.091,1.867,21.563,21.563,0,0,1-8.307,3.906,16.5,16.5,0,0,1-5.063.411,7.667,7.667,0,0,1-3.892-1.4,5.727,5.727,0,0,1-1.787-2.151,4.859,4.859,0,0,1-.252-.719.934.934,0,0,1-.042-.261,9.907,9.907,0,0,0,.383.933,5.787,5.787,0,0,0,1.8,2.049,7.663,7.663,0,0,0,3.808,1.33,16.867,16.867,0,0,0,4.993-.429,22.129,22.129,0,0,0,8.255-3.808,24.784,24.784,0,0,0,2.123-1.787l.546-.527A1.078,1.078,0,0,1,200.64,379Z" transform="translate(-164.542 -220.947)" fill="#263238"/>
      <path id="Path_131" data-name="Path 131" d="M200.64,388.36a1.267,1.267,0,0,1-.168.205c-.112.131-.28.327-.509.565a21,21,0,0,1-10.4,5.763,16.511,16.511,0,0,1-5.063.415,7.709,7.709,0,0,1-3.892-1.4,5.684,5.684,0,0,1-1.787-2.147,4.7,4.7,0,0,1-.252-.723.9.9,0,0,1-.042-.261,9.9,9.9,0,0,0,.383.933,5.8,5.8,0,0,0,1.8,2.053,7.662,7.662,0,0,0,3.808,1.325,16.71,16.71,0,0,0,4.993-.429,22.2,22.2,0,0,0,8.255-3.8,24.677,24.677,0,0,0,2.123-1.792l.546-.527A1.143,1.143,0,0,1,200.64,388.36Z" transform="translate(-164.542 -225.939)" fill="#263238"/>
      <path id="Path_132" data-name="Path 132" d="M197.64,385.53a1,1,0,0,1,.033.187c0,.135.033.322.061.555.056.5.135,1.223.233,2.142.2,1.867.569,4.541.737,7.887a37.126,37.126,0,0,1-.117,5.474,23.576,23.576,0,0,1-1.4,6.127,15.82,15.82,0,0,1-3.775,5.81,13.93,13.93,0,0,1-2.968,2.193,11.961,11.961,0,0,1-3.584,1.265,10.934,10.934,0,0,1-7.257-1.344,14.1,14.1,0,0,1-5.007-4.8,18.933,18.933,0,0,1-2.333-5.829,27.065,27.065,0,0,1-.644-5.451,53.2,53.2,0,0,1,.56-7.9c.135-.933.238-1.633.308-2.133.037-.233.07-.415.089-.555a1.115,1.115,0,0,1,.042-.187.98.98,0,0,1,0,.191c0,.14-.037.322-.065.555-.061.5-.149,1.223-.266,2.137a55.963,55.963,0,0,0-.467,7.887,27.114,27.114,0,0,0,.663,5.4,18.868,18.868,0,0,0,2.333,5.749,13.851,13.851,0,0,0,4.914,4.723,10.687,10.687,0,0,0,7.1,1.311,11.514,11.514,0,0,0,3.509-1.237,13.7,13.7,0,0,0,2.921-2.151,15.614,15.614,0,0,0,3.733-5.717,23.48,23.48,0,0,0,1.4-6.067,36.954,36.954,0,0,0,.145-5.446c-.145-3.337-.467-6.025-.658-7.887-.093-.933-.154-1.657-.191-2.147,0-.233-.028-.42-.037-.56S197.64,385.53,197.64,385.53Z" transform="translate(-160.856 -224.429)" fill="#263238"/>
      <g id="Group_56" data-name="Group 56" transform="translate(12.485 184.214)" opacity="0.2">
        <path id="Path_133" data-name="Path 133" d="M175.324,435.06a15.577,15.577,0,0,0,2.772,5.857,11.746,11.746,0,0,0,6.043,4.583,10.943,10.943,0,0,0,10.491-1.867c2.851-2.385,3.859-6.067,4.354-8.563-1.241,1.671-2.562,4.046-4.125,5.423a12.291,12.291,0,0,1-5.693,2.94,12.927,12.927,0,0,1-8.531-1.895c-2.394-1.521-3.841-4.247-5.325-6.473" transform="translate(-175.31 -435.06)"/>
      </g>
      <g id="Group_57" data-name="Group 57" transform="translate(14.497 166.112)" opacity="0.2">
        <path id="Path_134" data-name="Path 134" d="M179.62,396.27a8.017,8.017,0,0,0,5.875,4.606c2.525.467,5.8-.331,7.373-2.7-5.553,1.951-11.074,2-13.248-1.9" transform="translate(-179.62 -396.27)"/>
      </g>
      <path id="Path_135" data-name="Path 135" d="M269.533,375.562a1.063,1.063,0,0,1-.359,0,6.024,6.024,0,0,1-.933-.205,8.918,8.918,0,0,1-5.017-3.808,6.825,6.825,0,0,1-.467-.859c-.089-.215-.131-.331-.112-.341s.252.439.709,1.106a10.3,10.3,0,0,0,2.165,2.263,10.148,10.148,0,0,0,2.763,1.475C269.043,375.432,269.538,375.52,269.533,375.562Z" transform="translate(-209.402 -216.333)" fill="#263238"/>
      <g id="Group_58" data-name="Group 58" transform="translate(53.673 154.32)" opacity="0.2">
        <path id="Path_136" data-name="Path 136" d="M263.57,371a7.652,7.652,0,0,0,4.667,4.41,2.843,2.843,0,0,0,1.181.173,1.372,1.372,0,0,0,1.017-.565,1.523,1.523,0,0,0-.541-1.941,5.422,5.422,0,0,0-2.081-.742c-1.489-.345-2.833.406-4.065-.845" transform="translate(-263.57 -371)"/>
      </g>
      <g id="Group_59" data-name="Group 59" transform="translate(12.401 146.121)" opacity="0.2">
        <path id="Path_137" data-name="Path 137" d="M175.13,358.017c3.481,3.043,8.4,3.173,12.828,1.867s8.288-3.766,12.049-6.454c-4.1.817-7.6,2.688-11.741,3.3a25.435,25.435,0,0,1-11.951-.677" transform="translate(-175.13 -353.43)"/>
      </g>
      <path id="Path_138" data-name="Path 138" d="M294.43,428.838a.272.272,0,0,1-.089.051,2.384,2.384,0,0,1-.275.126,4.128,4.128,0,0,1-1.134.28,6.244,6.244,0,0,1-4.074-1.092,21.105,21.105,0,0,1-4.466-4.48,48.421,48.421,0,0,1-4.345-6.412,54.218,54.218,0,0,1-5.269-13.02c-.467-1.745-.737-3.173-.91-4.167-.075-.467-.135-.863-.182-1.143a3.58,3.58,0,0,1-.047-.4,2.127,2.127,0,0,1,.1.392l.224,1.134c.2.985.513,2.408.98,4.139a56.608,56.608,0,0,0,5.315,12.945,49.986,49.986,0,0,0,4.312,6.393,21.415,21.415,0,0,0,4.382,4.475,6.253,6.253,0,0,0,3.99,1.143A5.65,5.65,0,0,0,294.43,428.838Z" transform="translate(-215.268 -231.39)" fill="#263238"/>
      <g id="Group_60" data-name="Group 60" transform="translate(62.38 180.229)" opacity="0.2">
        <path id="Path_139" data-name="Path 139" d="M282.23,426.52s6.888,8.661,11.914,10.784c1.7.723,3.579,1.311,4.741,2.749a3.019,3.019,0,0,1,.723,2.436,1.345,1.345,0,0,1-.093.3c-.723,1.843-4.2,1.587-5.791.42-.7-.509-.285-.182-.845-.6C291.269,441.392,282.65,431.411,282.23,426.52Z" transform="translate(-282.23 -426.52)"/>
      </g>
      <path id="Path_140" data-name="Path 140" d="M208.569,175.023l4.4-.873,21.742.257,11.046,2.427,4.214,61.683L201.13,240.8Z" transform="translate(-176.596 -111.692)" fill="#e0e0e0"/>
      <path id="Path_141" data-name="Path 141" d="M284.051,236.756l1.041-28.056L283.36,176.17c6.869,1.769,16.263,3.733,21.466,9.665a31.382,31.382,0,0,1,7.933,16.7c1.437,9.333,3.332,27.183,4.517,37.169" transform="translate(-220.452 -112.769)" fill="#063"/>
      <path id="Path_142" data-name="Path 142" d="M219.06,231.467,185.3,236.95,184.1,216.1l-1.867-41.22c-9.8.4-20.953,8.5-24.3,14.807a42.972,42.972,0,0,0-4.9,14.387c-1.171,9.333-3.155,25.326-4.34,35.317a20.584,20.584,0,0,0,5.665,16.744h0c4.9,5.054,12.572,6.8,19.469,5.376l51.407-14.466Z" transform="translate(-148.555 -112.081)" fill="#063"/>
      <path id="Path_143" data-name="Path 143" d="M291.909,232.912a.464.464,0,0,1,.023-.117q.042-.126.1-.336c.1-.313.229-.747.4-1.3.364-1.148.882-2.8,1.526-4.844l5.3-16.538.07.145-5.474-2.263-.215-.089.191-.126,1.265-.831,4.13-2.7-.047.131c-2.1-7.289-3.948-13.72-5.278-18.344-.649-2.3-1.171-4.144-1.54-5.432-.168-.63-.3-1.12-.4-1.47q-.061-.229-.1-.378a.5.5,0,0,1-.028-.131.3.3,0,0,0,.047.121l.121.378c.107.345.257.831.443,1.456l1.61,5.409L299.4,203.98l.023.084-.075.051-4.125,2.7-1.265.826v-.215l5.469,2.273.1.042-.033.1c-2.156,6.622-4.037,12.385-5.381,16.515-.677,2.044-1.213,3.682-1.591,4.821-.187.551-.336.985-.439,1.293-.047.135-.089.243-.117.331A.548.548,0,0,1,291.909,232.912Z" transform="translate(-224.97 -113.9)" fill="#263238"/>
      <g id="Group_61" data-name="Group 61" transform="translate(66.571 90.182)" opacity="0.2">
        <path id="Path_144" data-name="Path 144" d="M299.045,233.56a4.854,4.854,0,0,1-1.7,2.553c-.644.369-.275.859.257,1.372.639.616,1.666.784,2.137,1.531a2.791,2.791,0,0,1-.037,2.385,173.127,173.127,0,0,1-8.493,21.765l7.835-23.879-5.465-2.254Z" transform="translate(-291.21 -233.56)"/>
      </g>
      <path id="Path_145" data-name="Path 145" d="M210.283,232.8a.411.411,0,0,1-.056-.1c-.033-.075-.079-.168-.131-.289l-.5-1.139c-.439-1.008-1.064-2.459-1.867-4.27l-6.3-14.756-.037-.084.079-.056,4.317-3.089v.177l-2.861-2.268-1.269-1-.63-.467-.154-.126a.535.535,0,0,1-.089-.079.377.377,0,0,1-.065-.131,1.754,1.754,0,0,1-.051-.425,24.091,24.091,0,0,1,.289-3.117c.285-2.021.621-3.962.933-5.81.663-3.691,1.321-7,1.867-9.8s1.036-5.026,1.367-6.575c.168-.765.3-1.363.4-1.787l.107-.467a.56.56,0,0,1,.047-.154.862.862,0,0,1-.023.163,4.071,4.071,0,0,1-.084.467q-.126.639-.35,1.792c-.308,1.568-.747,3.817-1.288,6.589s-1.176,6.1-1.829,9.8c-.322,1.843-.653,3.785-.933,5.8a24.064,24.064,0,0,0-.285,3.08,1.4,1.4,0,0,0,.042.355c0,.056.135.14.233.224l.625.495,1.265,1,2.856,2.263.126.1-.131.093-4.321,3.08.037-.145,6.258,14.774c.761,1.825,1.367,3.267,1.787,4.3.2.49.359.873.467,1.153l.112.3A.758.758,0,0,1,210.283,232.8Z" transform="translate(-176.35 -113.207)" fill="#263238"/>
      <rect id="Rectangle_28" data-name="Rectangle 28" width="36.67" height="50.371" rx="2.41" transform="translate(39.626 93.925) rotate(8.77)" fill="#063"/>
      <g id="Group_62" data-name="Group 62" transform="translate(31.945 93.925)" opacity="0.2">
        <rect id="Rectangle_29" data-name="Rectangle 29" width="36.67" height="50.371" rx="2.41" transform="translate(7.68 0) rotate(8.77)"/>
      </g>
      <rect id="Rectangle_30" data-name="Rectangle 30" width="32.577" height="46.89" transform="translate(41.485 95.295) rotate(8.77)" fill="#ebebeb"/>
      <path id="Path_146" data-name="Path 146" d="M270.066,244.543a4,4,0,0,0-3.2-2.721l.271-1.983a2.744,2.744,0,0,0-2.291-3.127h0A2.744,2.744,0,0,0,261.718,239l-.317,2.053-.691-.093a3.981,3.981,0,0,0-3.8,1.652l-.537.747,14,2.165Zm-5.787-3.621a1.475,1.475,0,1,1,1.68-1.232,1.475,1.475,0,0,1-1.68,1.232Z" transform="translate(-206.057 -145.042)" fill="#263238"/>
      <path id="Path_147" data-name="Path 147" d="M250.851,261.014a39.624,39.624,0,0,1-4.387-.551,41.125,41.125,0,0,1-4.345-.793,39.615,39.615,0,0,1,4.382.551A41.068,41.068,0,0,1,250.851,261.014Z" transform="translate(-198.457 -157.303)" fill="#263238"/>
      <path id="Path_148" data-name="Path 148" d="M245.839,263.468a9.041,9.041,0,0,1-2.123-.205,9.438,9.438,0,0,1-2.086-.443,9.685,9.685,0,0,1,2.123.205,9.442,9.442,0,0,1,2.086.443Z" transform="translate(-198.196 -158.982)" fill="#263238"/>
      <path id="Path_149" data-name="Path 149" d="M265.469,275.5c0,.065-5.46-.723-12.166-1.755s-12.133-1.932-12.133-2,5.455.719,12.166,1.755S265.478,275.428,265.469,275.5Z" transform="translate(-197.951 -163.742)" fill="#263238"/>
      <path id="Path_150" data-name="Path 150" d="M264.7,280.463c0,.065-5.455-.719-12.166-1.755s-12.133-1.927-12.133-1.993,5.455.719,12.166,1.755S264.708,280.4,264.7,280.463Z" transform="translate(-197.54 -166.392)" fill="#263238"/>
      <path id="Path_151" data-name="Path 151" d="M263.939,285.428c0,.065-5.46-.723-12.166-1.755s-12.133-1.932-12.133-2,5.46.719,12.17,1.755S263.948,285.358,263.939,285.428Z" transform="translate(-197.135 -169.038)" fill="#263238"/>
      <path id="Path_152" data-name="Path 152" d="M263.169,290.387c0,.065-5.455-.719-12.166-1.755s-12.133-1.927-12.133-2,5.455.723,12.166,1.759S263.2,290.322,263.169,290.387Z" transform="translate(-196.724 -171.682)" fill="#263238"/>
      <path id="Path_153" data-name="Path 153" d="M262.4,295.353c0,.07-5.455-.719-12.166-1.755s-12.133-1.927-12.133-1.993,5.455.719,12.166,1.755S262.413,295.288,262.4,295.353Z" transform="translate(-196.313 -174.334)" fill="#263238"/>
      <path id="Path_154" data-name="Path 154" d="M261.639,300.317c0,.065-5.46-.719-12.166-1.755s-12.133-1.927-12.133-2,5.455.719,12.166,1.755S261.648,300.252,261.639,300.317Z" transform="translate(-195.908 -176.979)" fill="#263238"/>
      <path id="Path_155" data-name="Path 155" d="M248.829,302.921a2.11,2.11,0,0,1-.467-.028c-.313-.033-.756-.089-1.307-.163-1.106-.149-2.627-.369-4.3-.625s-3.192-.509-4.289-.7c-.551-.093-.989-.177-1.3-.238a1.774,1.774,0,0,1-.467-.121,1.824,1.824,0,0,1,.467.028c.313.033.756.089,1.307.163,1.106.145,2.627.369,4.3.625s3.192.509,4.289.7c.551.093.989.177,1.3.238a1.771,1.771,0,0,1,.467.121Z" transform="translate(-195.567 -179.368)" fill="#263238"/>
      <path id="Path_156" data-name="Path 156" d="M292.962,267.052A8.06,8.06,0,0,1,291,266.87a7.97,7.97,0,0,1-1.927-.42A16.156,16.156,0,0,1,292.962,267.052Z" transform="translate(-223.498 -160.919)" fill="#263238"/>
      <path id="Path_157" data-name="Path 157" d="M241.969,312.945a21.165,21.165,0,0,1-3.173-.369,20.891,20.891,0,0,1-3.136-.607,42.369,42.369,0,0,1,6.309.975Z" transform="translate(-195.012 -185.197)" fill="#263238"/>
      <path id="Path_158" data-name="Path 158" d="M241.607,317.5a21.967,21.967,0,0,1-3.229-.378,20.806,20.806,0,0,1-3.187-.616,21.874,21.874,0,0,1,3.225.378A20.807,20.807,0,0,1,241.607,317.5Z" transform="translate(-194.761 -187.618)" fill="#263238"/>
      <path id="Path_159" data-name="Path 159" d="M285.017,318.888a9.958,9.958,0,0,1-3.047-.467,5.134,5.134,0,0,1,1.545.112A4.779,4.779,0,0,1,285.017,318.888Z" transform="translate(-219.711 -188.629)" fill="#263238"/>
      <path id="Path_160" data-name="Path 160" d="M284.617,323a9.959,9.959,0,0,1-3.047-.467,9.96,9.96,0,0,1,3.047.467Z" transform="translate(-219.498 -190.829)" fill="#263238"/>
      <path id="Path_161" data-name="Path 161" d="M238.535,321.856a4.875,4.875,0,0,1-1.493-.107,4.625,4.625,0,0,1-1.451-.35,4.665,4.665,0,0,1,1.489.107A4.573,4.573,0,0,1,238.535,321.856Z" transform="translate(-194.975 -190.216)" fill="#263238"/>
      <path id="Path_162" data-name="Path 162" d="M285.072,327.864a2.73,2.73,0,0,1-1.125-.051,2.7,2.7,0,0,1-1.087-.289,2.6,2.6,0,0,1,1.125.047,2.655,2.655,0,0,1,1.087.294Z" transform="translate(-220.186 -193.471)" fill="#263238"/>
      <path id="Path_163" data-name="Path 163" d="M233.52,329.661a3.113,3.113,0,0,1,.551,0l1.549.047,5.535.219h.126l-.028.121a2.651,2.651,0,0,1-.971,1.507,2.2,2.2,0,0,1-1.867.425,2.175,2.175,0,0,1-1.535-1.33,1.867,1.867,0,0,1,.569-2.016,1.713,1.713,0,0,1,.737-.392,1.09,1.09,0,0,1,.21-.033.932.932,0,0,1,.229,0,.322.322,0,0,1,.238.177.5.5,0,0,1,.028.252,3.654,3.654,0,0,1-.509,1.475,3.733,3.733,0,0,1-1.031,1.092,2.334,2.334,0,0,1-1.4.467,1.311,1.311,0,0,1-1.12-.807,1.964,1.964,0,0,1-.093-1.3,4.713,4.713,0,0,1,1.307-1.867l.126-.126v.177a3.183,3.183,0,0,1-.355,1.867,3.364,3.364,0,0,1-.933,1.106,2.923,2.923,0,0,1-.8.439,1.132,1.132,0,0,1-.308.075,3.759,3.759,0,0,0,1.05-.588,3.4,3.4,0,0,0,.863-1.092,3.052,3.052,0,0,0,.3-1.792l.149.047a4.606,4.606,0,0,0-1.237,1.811,1.759,1.759,0,0,0,.093,1.162,1.092,1.092,0,0,0,.933.672,2.063,2.063,0,0,0,1.232-.425,3.411,3.411,0,0,0,1.433-2.4.256.256,0,0,0,0-.126c0-.023,0-.033-.065-.042a1.107,1.107,0,0,0-.336.033,1.521,1.521,0,0,0-.635.336,1.647,1.647,0,0,0-.5,1.755,1.951,1.951,0,0,0,3.038.8,2.413,2.413,0,0,0,.9-1.372l.1.126-5.488-.322-1.549-.1A4.353,4.353,0,0,1,233.52,329.661Z" transform="translate(-193.871 -193.517)" fill="#263238"/>
      <path id="Path_164" data-name="Path 164" d="M276.583,335.249a1.311,1.311,0,0,1-.266.28,1.664,1.664,0,0,1-.4.252.9.9,0,0,1-.639.033.621.621,0,0,1-.327-.238.836.836,0,0,1-.131-.411,7.431,7.431,0,0,1,.065-.891c.061-.635.131-1.33.205-2.081l.2.079-1.783,2.413-.443.6-.289.392.07-.467c.191-1.246.364-2.408.518-3.43l.173.093a10.939,10.939,0,0,0-1.918,2.1c-.392.565-.579.933-.6.905a1.007,1.007,0,0,1,.107-.266,7.748,7.748,0,0,1,.4-.7,9.912,9.912,0,0,1,1.867-2.193l.21-.182-.042.28c-.14,1.017-.308,2.184-.467,3.435l-.219-.093.467-.6c.635-.849,1.237-1.661,1.8-2.4l.247-.336-.047.415c-.089.751-.168,1.447-.243,2.077a8,8,0,0,0-.084.863.527.527,0,0,0,.336.527,1.018,1.018,0,0,0,.933-.215A2.335,2.335,0,0,1,276.583,335.249Z" transform="translate(-213.871 -195.629)" fill="#263238"/>
      <path id="Path_165" data-name="Path 165" d="M274.241,336.591a88.041,88.041,0,0,1-9.151-.042,84.715,84.715,0,0,1,9.151.042Z" transform="translate(-210.708 -198.24)" fill="#263238"/>
      <path id="Path_166" data-name="Path 166" d="M279.5,339.89a57.07,57.07,0,0,1-7.341.8,26.879,26.879,0,0,1,3.659-.523,27.333,27.333,0,0,1,3.682-.275Z" transform="translate(-214.479 -200.088)" fill="#263238"/>
      <g id="Group_63" data-name="Group 63" transform="translate(23.64 91.755)" opacity="0.2">
        <path id="Path_167" data-name="Path 167" d="M200.015,236.93a3.994,3.994,0,0,0,1.489,3.617,4.574,4.574,0,0,0-2.287,4.032,11.841,11.841,0,0,0,1.129,4.709,75.5,75.5,0,0,0,9,15.106s-1.559-4.2-2.007-5.185c-2.025-4.429-3.813-8.867-5.843-13.309-.224-.467-.625-1.829-.625-1.829a2.591,2.591,0,0,0,.607-.415c1.139-.933,3.607-2.571,3.607-2.571s-5.068-4.013-5.068-4.153" transform="translate(-199.214 -236.93)"/>
      </g>
      <path id="Path_168" data-name="Path 168" d="M199.879,257.33c.065,0-.051,5.39-.266,12.03s-.439,12.026-.5,12.021.047-5.385.261-12.031S199.809,257.325,199.879,257.33Z" transform="translate(-175.508 -156.055)" fill="#263238"/>
      <path id="Path_169" data-name="Path 169" d="M217.467,194.381H217c0-.177.677-17.831,1.2-24.859a3.626,3.626,0,0,1,1.227-2.595,5.671,5.671,0,0,1,3.733-1.078l-.037.467a5.29,5.29,0,0,0-3.388.966,3.2,3.2,0,0,0-1.069,2.277C218.157,176.536,217.49,194.185,217.467,194.381Z" transform="translate(-185.06 -107.26)" fill="#263238"/>
      <path id="Path_170" data-name="Path 170" d="M226.426,274.184H225.6v-.933h.826a3.267,3.267,0,0,0,3.267-3.267V260.1h.933v9.884A4.2,4.2,0,0,1,226.426,274.184Z" transform="translate(-189.646 -157.533)" fill="#455a64"/>
      <path id="Path_171" data-name="Path 171" d="M225.8,288.261a1,1,0,1,1-.9-1.1,1,1,0,0,1,.9,1.1Z" transform="translate(-188.687 -171.965)" fill="#263238"/>
      <path id="Path_172" data-name="Path 172" d="M204.326,274.134H203.5a4.2,4.2,0,0,1-4.2-4.2l.037-9.884h.933l-.037,9.884A3.267,3.267,0,0,0,203.5,273.2h.826Z" transform="translate(-175.62 -157.506)" fill="#455a64"/>
      <path id="Path_173" data-name="Path 173" d="M207.585,288.207a1,1,0,1,0,.223-.733A1,1,0,0,0,207.585,288.207Z" transform="translate(-180.036 -171.938)" fill="#263238"/>
      <path id="Path_174" data-name="Path 174" d="M198.655,243.135l-.117-7.047c-.089-5.371,3.836-9.8,8.75-9.889a8.531,8.531,0,0,1,6.37,2.772,10.173,10.173,0,0,1,2.7,6.818l.117,7.051-1.4.023-.117-7.051a8.759,8.759,0,0,0-2.333-5.885,7.093,7.093,0,0,0-5.325-2.333c-4.144.07-7.467,3.864-7.373,8.465l.117,7.047Z" transform="translate(-175.213 -139.452)" fill="#263238"/>
      <path id="Path_175" data-name="Path 175" d="M278.013,193.09c0-.187-2.142-18.531-2.758-24.411l-.042-.429c-.191-2-.415-4.256-2.623-4.853l.121-.467c2.52.681,2.767,3.22,2.968,5.259l.042.425c.611,5.88,2.735,24.224,2.753,24.411Z" transform="translate(-214.708 -105.708)" fill="#263238"/>
      <circle id="Ellipse_7" data-name="Ellipse 7" cx="5.007" cy="5.007" r="5.007" transform="translate(56.459 84.238) rotate(-45)" fill="#263238"/>
      <path id="Path_176" data-name="Path 176" d="M284.354,218.052a2.417,2.417,0,1,1-.706-1.712,2.422,2.422,0,0,1,.706,1.712Z" transform="translate(-218.399 -133.815)" fill="#455a64"/>
      <path id="Path_177" data-name="Path 177" d="M214.086,296.58,207.8,312.04l50.143,13.9a16.081,16.081,0,0,0,13.561-2.333h0c5.245-3.7,6.533-10.173,5.894-16.58l-.905-6.813Z" transform="translate(-180.153 -176.989)" fill="#063"/>
      <path id="Path_178" data-name="Path 178" d="M322.07,316.593c-.051,0-.159-1.055-.677-2.683a13.517,13.517,0,0,0-.467-1.311c-.177-.467-.425-.933-.672-1.456a19.389,19.389,0,0,0-2.021-3.057,19.638,19.638,0,0,0-2.595-2.585c-.467-.341-.868-.681-1.293-.933a13.537,13.537,0,0,0-1.19-.733c-1.493-.826-2.515-1.143-2.5-1.195a3.889,3.889,0,0,1,.714.219,7.087,7.087,0,0,1,.817.322c.313.145.677.289,1.05.5a12.406,12.406,0,0,1,1.218.714c.434.261.863.6,1.321.933a18.977,18.977,0,0,1,2.646,2.6,18.627,18.627,0,0,1,2.025,3.108c.247.518.49,1,.663,1.484a12.279,12.279,0,0,1,.467,1.335,9.751,9.751,0,0,1,.285,1.129,5.773,5.773,0,0,1,.154.882A3.961,3.961,0,0,1,322.07,316.593Z" transform="translate(-235.012 -180.221)" fill="#263238"/>
      <g id="Group_64" data-name="Group 64" transform="translate(9.57 113.338)" opacity="0.2">
        <path id="Path_179" data-name="Path 179" d="M186.02,296.013c-3.827.317-6.781.667-10.733,1.153-2.469.3-5.031.131-5.838-2.217a8.488,8.488,0,0,1,1.031-7.14c1.325-2.1,3.407-7,14.55-3.267Z" transform="translate(-169.063 -283.18)"/>
      </g>
      <path id="Path_180" data-name="Path 180" d="M216.46,302.382l.028-.1.107-.308.42-1.176,1.61-4.345.023-.061h.061l17.056,1.545,16.5,1.568,5,.5,1.358.149.35.047a.383.383,0,0,1,.121.023h-.476l-1.363-.1-5.007-.429L235.742,298.2,218.7,296.577l.084-.056-1.68,4.321L216.633,302l-.126.3C216.483,302.354,216.465,302.387,216.46,302.382Z" transform="translate(-184.772 -176.887)" fill="#263238"/>
      <g id="Group_65" data-name="Group 65" transform="translate(52.319 133.53)" opacity="0.2">
        <path id="Path_181" data-name="Path 181" d="M260.67,334.36c7.121,1.909,11.452.8,17.92-2.735a34.8,34.8,0,0,0,3.808-2.585,13.759,13.759,0,0,0,2.441-2.59c-8.33,3.187-15.25,5.6-23.837,8" transform="translate(-260.67 -326.45)"/>
      </g>
      <path id="Path_182" data-name="Path 182" d="M193.086,291.638l1.629-4.55-3.785-5.917A4.466,4.466,0,0,0,188,279.187l-13.925-2.627a2.245,2.245,0,0,0,1.176,2.739c1.825,1.041,10.033,2.949,10.033,2.949l-12.642-.215s-.392,1.825,1.041,2.478,10.439.985,10.439.985L172.59,287.12s-.065,1.829,2.571,1.867a76.267,76.267,0,0,0,7.77-.49.415.415,0,0,1,.467.341h0a.415.415,0,0,1-.313.467l-7.667,1.811a1.027,1.027,0,0,0-.075,1.983,1.257,1.257,0,0,0,.425.028c1.307-.131,9.109-1.12,9.109-1.12l.406.91,7.8-1.269" transform="translate(-161.374 -166.311)" fill="#b78876"/>
      <path id="Path_183" data-name="Path 183" d="M198.427,304.1a2.6,2.6,0,0,0-.429-.691,1.9,1.9,0,0,0-.737-.467,2.87,2.87,0,0,0-1.064-.117c-.775.056-1.475.28-2,.345a1.82,1.82,0,0,1-.859,0,7.177,7.177,0,0,1,.826-.182,12.561,12.561,0,0,1,2.016-.42,2.846,2.846,0,0,1,1.157.149,1.992,1.992,0,0,1,.784.551.985.985,0,0,1,.3.831Z" transform="translate(-172.441 -180.179)" fill="#aa6550"/>
      <path id="Path_184" data-name="Path 184" d="M197.207,296.716c-.023,0-.037-.126-.14-.327a1.605,1.605,0,0,0-.663-.653,6.29,6.29,0,0,0-3.145-.191c-1.251.084-2.4.271-3.225.378a7.773,7.773,0,0,1-1.344.135,6.8,6.8,0,0,1,1.316-.3,32.393,32.393,0,0,1,3.229-.467,17.406,17.406,0,0,1,1.8-.07,2.866,2.866,0,0,1,1.451.355,1.549,1.549,0,0,1,.663.765.616.616,0,0,1,.056.378Z" transform="translate(-169.961 -176.262)" fill="#aa6550"/>
      <path id="Path_185" data-name="Path 185" d="M201.7,291.121a2.278,2.278,0,0,0-.294-1.055,2.394,2.394,0,0,0-.84-.817,3.733,3.733,0,0,0-1.4-.411c-1.045-.1-2.025,0-2.739-.056a2.445,2.445,0,0,1-1.115-.271c0-.037.429.089,1.125.1a24.422,24.422,0,0,1,2.758,0,3.51,3.51,0,0,1,1.479.467,2.408,2.408,0,0,1,.877.933,1.675,1.675,0,0,1,.21.831A.758.758,0,0,1,201.7,291.121Z" transform="translate(-173.492 -172.682)" fill="#aa6550"/>
      <path id="Path_186" data-name="Path 186" d="M305.87,272.41a4.306,4.306,0,0,1,.07-.756c.061-.467.177-1.185.341-2.044.322-1.717.891-4.065,1.493-6.655a59.917,59.917,0,0,0,1.218-6.692c.056-.434.079-.826.112-1.171s.051-.639.061-.887a4,4,0,0,1,.065-.756,4.641,4.641,0,0,1,.028.761v.891a10.2,10.2,0,0,1-.079,1.176,49.408,49.408,0,0,1-1.148,6.734c-.607,2.595-1.2,4.928-1.563,6.636-.182.849-.327,1.545-.415,2.021A4.7,4.7,0,0,1,305.87,272.41Z" transform="translate(-232.458 -153.986)" fill="#263238"/>
      <path id="Path_187" data-name="Path 187" d="M286.245,351.317a.933.933,0,0,1-.275-.047l-.775-.173-2.837-.7c-2.394-.6-5.693-1.475-9.333-2.483s-6.9-1.974-9.258-2.7l-2.8-.868-.756-.252a1.058,1.058,0,0,1-.21-.1,1.01,1.01,0,0,1,.271.056l.77.205,2.8.8,9.277,2.627,9.282,2.548,2.8.77.765.219A1.4,1.4,0,0,1,286.245,351.317Z" transform="translate(-207.993 -202.28)" fill="#263238"/>
      <path id="Path_188" data-name="Path 188" d="M213.3,54.018c1.027-3.169,6.286-6.029,9.17-7.691,4.317-2.478,8.316-1.983,10.78.224,4.452-3.733,10.318-7.327,15.941-5.857s10.192,7.229,9.165,12.954c-.6,3.374-2.94,6.4-2.8,9.8.093,2.333,1.33,4.443,2.333,6.561s1.741,4.583.863,6.748c-.817,2.011-2.856,3.267-3.953,5.133-.9,1.531-1.1,3.351-1.675,5.026-2.119,6.207-9.445,9.688-15.913,8.6s-11.858-5.959-14.933-11.764-4.065-12.469-4.419-19.016" transform="translate(-183.086 -40.335)" fill="#263238"/>
      <path id="Path_189" data-name="Path 189" d="M223.51,71.3l1.293,51.752c.467,5.931,5.931,10.267,12.278,9.716h0c6.407-.551,11.3-5.857,10.934-11.858-.387-6.3-.677-12.936-.677-12.936s8.022-1.867,9.021-12.562c.509-5.479-.378-14.466-1.307-21.588a10.612,10.612,0,0,0-12.32-9.109" transform="translate(-188.532 -53.244)" fill="#b78876"/>
      <path id="Path_190" data-name="Path 190" d="M282.913,99.489a1.353,1.353,0,0,1-1.218,1.451,1.3,1.3,0,0,1-1.479-1.129,1.363,1.363,0,0,1,1.218-1.456,1.3,1.3,0,0,1,1.479,1.134Z" transform="translate(-218.773 -71.26)" fill="#263238"/>
      <path id="Path_191" data-name="Path 191" d="M282.752,96.391c-.159.187-1.237-.509-2.7-.411s-2.483.9-2.651.728c-.084-.075.065-.4.509-.775a3.733,3.733,0,0,1,2.114-.8,3.6,3.6,0,0,1,2.156.546C282.654,96,282.827,96.3,282.752,96.391Z" transform="translate(-217.264 -69.544)" fill="#263238"/>
      <path id="Path_192" data-name="Path 192" d="M252.913,102.629a1.353,1.353,0,0,1-1.218,1.456,1.3,1.3,0,0,1-1.479-1.134,1.363,1.363,0,0,1,1.218-1.456,1.3,1.3,0,0,1,1.479,1.134Z" transform="translate(-202.773 -72.935)" fill="#263238"/>
      <path id="Path_193" data-name="Path 193" d="M252.022,98.961c-.159.187-1.237-.509-2.7-.411s-2.483.9-2.651.728c-.084-.075.065-.4.513-.775a3.733,3.733,0,0,1,2.109-.8,3.6,3.6,0,0,1,2.156.546C251.948,98.564,252.1,98.872,252.022,98.961Z" transform="translate(-200.874 -70.914)" fill="#263238"/>
      <path id="Path_194" data-name="Path 194" d="M269.311,109.023a10.225,10.225,0,0,1,2.333-.579c.369-.061.719-.159.765-.42a1.89,1.89,0,0,0-.322-1.087c-.406-.882-.835-1.8-1.283-2.767-1.792-3.948-3.117-7.2-2.959-7.271s1.741,3.071,3.537,7c.429.971.845,1.9,1.237,2.8a2.133,2.133,0,0,1,.289,1.451.933.933,0,0,1-.579.583,2.333,2.333,0,0,1-.625.126A9.154,9.154,0,0,1,269.311,109.023Z" transform="translate(-212.171 -70.49)" fill="#263238"/>
      <path id="Path_195" data-name="Path 195" d="M258.1,154.275a26.982,26.982,0,0,1-14.42-2.865s4.009,7.126,14.536,5.451Z" transform="translate(-199.289 -99.564)" fill="#aa6550"/>
      <path id="Path_196" data-name="Path 196" d="M250.606,87.028c-.121.406-1.591.313-3.29.63s-3.057.873-3.309.532c-.112-.163.107-.555.639-.975a5.83,5.83,0,0,1,5.026-.887C250.317,86.543,250.653,86.837,250.606,87.028Z" transform="translate(-199.449 -64.731)" fill="#263238"/>
      <path id="Path_197" data-name="Path 197" d="M281.443,87.3c-.233.35-1.265.07-2.473.131s-2.221.369-2.478.037c-.117-.163,0-.5.467-.849a3.584,3.584,0,0,1,3.99-.131C281.373,86.8,281.546,87.133,281.443,87.3Z" transform="translate(-216.767 -64.649)" fill="#263238"/>
      <path id="Path_198" data-name="Path 198" d="M264.719,128.759a4.449,4.449,0,0,1,2.683.933,1.676,1.676,0,0,1,.691.681,1.447,1.447,0,0,1-.145,1.269,2.553,2.553,0,0,1-2.422,1.293,2.333,2.333,0,0,1-2.03-1.8,2.189,2.189,0,0,1,1.223-2.389" transform="translate(-209.838 -87.478)" fill="#aa6550"/>
      <path id="Path_199" data-name="Path 199" d="M268.123,130.59c0,.112-.364.28-1,.243a5.436,5.436,0,0,1-2.287-.747A6.36,6.36,0,0,1,263,128.551c-.378-.467-.495-.877-.4-.933.191-.126,1.153.882,2.665,1.713a11.564,11.564,0,0,0,1.965.9C267.754,130.408,268.109,130.469,268.123,130.59Z" transform="translate(-209.364 -86.869)" fill="#263238"/>
      <circle id="Ellipse_8" data-name="Ellipse 8" cx="0.387" cy="0.387" r="0.387" transform="translate(51.162 33.838)" fill="#aa6550"/>
      <path id="Path_200" data-name="Path 200" d="M282.465,109.137a.387.387,0,1,1-.387-.387.387.387,0,0,1,.387.387Z" transform="translate(-219.562 -76.811)" fill="#aa6550"/>
      <path id="Path_201" data-name="Path 201" d="M287.047,111.341a.392.392,0,1,1-.39-.349A.392.392,0,0,1,287.047,111.341Z" transform="translate(-222.002 -78.007)" fill="#aa6550"/>
      <path id="Path_202" data-name="Path 202" d="M288.445,107.827a.387.387,0,1,1-.387-.387A.387.387,0,0,1,288.445,107.827Z" transform="translate(-222.751 -76.113)" fill="#aa6550"/>
      <path id="Path_203" data-name="Path 203" d="M255.154,116.877a.392.392,0,1,1-.392-.387.392.392,0,0,1,.392.387Z" transform="translate(-204.991 -80.939)" fill="#aa6550"/>
      <path id="Path_204" data-name="Path 204" d="M252.045,113.557a.387.387,0,1,1-.387-.387A.387.387,0,0,1,252.045,113.557Z" transform="translate(-203.337 -79.169)" fill="#aa6550"/>
      <path id="Path_205" data-name="Path 205" d="M250.989,96.137a10.7,10.7,0,0,0-.257-1.633,6.706,6.706,0,0,0-2.455-3.654,6.566,6.566,0,0,0-2.8-1.232,6.664,6.664,0,0,0-3.481.294,6.2,6.2,0,0,0-1.671.905,6.347,6.347,0,0,0-1.4,1.4,6.608,6.608,0,0,0,0,7.826,6.587,6.587,0,0,0,6.552,2.627,6.566,6.566,0,0,0,2.8-1.232,6.715,6.715,0,0,0,2.455-3.649,10.884,10.884,0,0,0,.257-1.633.28.28,0,0,1,0,.107v.322a3.328,3.328,0,0,1-.042.523,4.57,4.57,0,0,1-.126.7,6.361,6.361,0,0,1-.728,1.82,6.79,6.79,0,0,1-8.176,2.959,6.533,6.533,0,0,1-1.736-.933,6.393,6.393,0,0,1-1.451-1.451,6.8,6.8,0,0,1,0-8.106,6.392,6.392,0,0,1,1.451-1.451,6.533,6.533,0,0,1,1.736-.933,6.805,6.805,0,0,1,8.176,2.959,6.412,6.412,0,0,1,.728,1.82,4.523,4.523,0,0,1,.126.7,3.233,3.233,0,0,1,.042.518v.322A.3.3,0,0,1,250.989,96.137Z" transform="translate(-195.935 -66.443)" fill="#fff"/>
      <path id="Path_206" data-name="Path 206" d="M269.232,99.061a5.306,5.306,0,0,0-1.6-.187,5.553,5.553,0,0,0-1.526.513,1.182,1.182,0,0,1,.359-.355,2.6,2.6,0,0,1,1.139-.4,2.515,2.515,0,0,1,1.2.159C269.1,98.907,269.246,99.033,269.232,99.061Z" transform="translate(-211.252 -71.406)" fill="#fff"/>
      <path id="Path_207" data-name="Path 207" d="M230.4,58.168A22.588,22.588,0,0,1,215.1,76.75c2.609,3.761.966,10.92,1.031,16.893.065,5.553.061,7.14-3.537,9.973-2.973.714-4.667-7.429-6.9-9.707s-4.326-5.082-4.163-8.246c.079-1.484.658-2.9.737-4.382a21.053,21.053,0,0,0-.723-4.867A18.521,18.521,0,0,1,210.214,57.8a20.385,20.385,0,0,1,20.762.336" transform="translate(-176.683 -48.209)" fill="#263238"/>
      <path id="Path_208" data-name="Path 208" d="M201.012,121.5a20.439,20.439,0,0,0-3.915-7.439l.135.289a9.161,9.161,0,1,0-14.107,10.836,2.122,2.122,0,0,0-2.333,1.722,3.99,3.99,0,0,0,.789,3.043,7.53,7.53,0,0,0,10.266,1.75c2.473,1.675,6.127.7,7.961-1.657A9.623,9.623,0,0,0,201.012,121.5Z" transform="translate(-165.156 -76.877)" fill="#263238"/>
      <path id="Path_209" data-name="Path 209" d="M202.926,83.128a2.283,2.283,0,0,1-.266-.3,3.118,3.118,0,0,1-.467-1.031,6.158,6.158,0,0,1,.616-4.107,8.106,8.106,0,0,1,1.689-2.366,15.833,15.833,0,0,1,2.539-2.161,13.314,13.314,0,0,1,3.3-1.652c1.209-.415,2.492-.737,3.8-1.064s2.585-.649,3.78-1.069a23.248,23.248,0,0,0,3.346-1.456,24.822,24.822,0,0,0,5.035-3.547,25.465,25.465,0,0,0,2.837-3.057c.308-.387.532-.7.686-.933a2.141,2.141,0,0,1,.247-.308,2.836,2.836,0,0,1-.205.336c-.145.219-.355.541-.653.933a23.183,23.183,0,0,1-2.8,3.127,24.6,24.6,0,0,1-5.059,3.621,23.433,23.433,0,0,1-3.374,1.479c-1.209.425-2.492.751-3.8,1.083s-2.585.644-3.785,1.05a13.355,13.355,0,0,0-3.267,1.61,16.375,16.375,0,0,0-2.52,2.119,8.027,8.027,0,0,0-1.643,2.338,6.114,6.114,0,0,0-.677,4.009A3.663,3.663,0,0,0,202.926,83.128Z" transform="translate(-177.089 -50.854)" fill="#455a64"/>
      <path id="Path_210" data-name="Path 210" d="M229.425,60.13a2.51,2.51,0,0,1-.219.266c-.149.173-.378.415-.672.728a29.641,29.641,0,0,1-2.693,2.45,18.839,18.839,0,0,1-4.629,2.8,17.829,17.829,0,0,1-3.089.835c-1.087.219-2.221.387-3.379.565a37.573,37.573,0,0,0-6.435,1.349,14.145,14.145,0,0,0-4.667,2.581,9.207,9.207,0,0,0-2.249,2.8,9,9,0,0,0-.387.905,1.531,1.531,0,0,1-.135.317,2.447,2.447,0,0,1,.089-.331,6.651,6.651,0,0,1,.35-.933,8.9,8.9,0,0,1,2.221-2.884,14,14,0,0,1,4.7-2.66,36.958,36.958,0,0,1,6.468-1.4c1.162-.173,2.291-.345,3.369-.555a17.953,17.953,0,0,0,3.057-.812,19.133,19.133,0,0,0,4.6-2.721,33.914,33.914,0,0,0,2.739-2.375l.7-.691a1.721,1.721,0,0,1,.257-.233Z" transform="translate(-176.457 -50.88)" fill="#455a64"/>
      <path id="Path_211" data-name="Path 211" d="M273.759,40.328c0,.051-.91.084-2.333.467a10.924,10.924,0,0,0-1.139.364c-.406.135-.817.336-1.26.532a14.131,14.131,0,0,0-4.863,3.864c-.289.387-.579.742-.8,1.111a10.332,10.332,0,0,0-.611,1.022c-.686,1.288-.933,2.175-.971,2.156a3.012,3.012,0,0,1,.159-.616,5.323,5.323,0,0,1,.252-.709,8.632,8.632,0,0,1,.411-.933,9.172,9.172,0,0,1,.593-1.055c.219-.373.5-.742.793-1.139a15.254,15.254,0,0,1,2.245-2.254,14.933,14.933,0,0,1,2.7-1.671,12.173,12.173,0,0,1,1.288-.518,11.8,11.8,0,0,1,2.137-.532,5.134,5.134,0,0,1,.747-.089A2.8,2.8,0,0,1,273.759,40.328Z" transform="translate(-208.943 -40.309)" fill="#455a64"/>
      <path id="Path_212" data-name="Path 212" d="M282.445,90.718s0-.033.07-.093l.219-.257c.2-.229.49-.56.821-1.022a5.734,5.734,0,0,0,.933-1.815,3.265,3.265,0,0,0,.1-1.255,3.588,3.588,0,0,0-.467-1.33,24.108,24.108,0,0,0-2.086-2.576A15.068,15.068,0,0,1,278.875,75a30.6,30.6,0,0,1-.112-4.55,15.828,15.828,0,0,0-.415-4.475,9.207,9.207,0,0,0-5.059-5.815,8.479,8.479,0,0,0-3.192-.737,9.333,9.333,0,0,0-5.749,1.694l-.28.2c-.061.042-.093.065-.1.061a6.663,6.663,0,0,1,1.451-1.017,9.333,9.333,0,0,1,4.667-1.106,8.708,8.708,0,0,1,3.267.723,9.37,9.37,0,0,1,5.208,5.941,16.047,16.047,0,0,1,.425,4.541,30.721,30.721,0,0,0,.107,4.517,14.877,14.877,0,0,0,3.089,7.275,23.182,23.182,0,0,1,2.081,2.618,3.673,3.673,0,0,1,.467,1.4,3.355,3.355,0,0,1-.121,1.311,5.655,5.655,0,0,1-.994,1.834,11.526,11.526,0,0,1-.859,1l-.243.243A.4.4,0,0,1,282.445,90.718Z" transform="translate(-210.111 -50.407)" fill="#455a64"/>
      <path id="Path_213" data-name="Path 213" d="M285.7,92.6a10.793,10.793,0,0,0-.257-1.633,6.635,6.635,0,0,0-11.806-2.254,6.6,6.6,0,0,0,0,7.821,6.175,6.175,0,0,0,1.4,1.4,6.313,6.313,0,0,0,1.671.9,6.673,6.673,0,0,0,8.736-4.587,10.8,10.8,0,0,0,.257-1.633.3.3,0,0,1,0,.112v.317a3.268,3.268,0,0,1-.042.523,4.721,4.721,0,0,1-.126.7,6.411,6.411,0,0,1-.728,1.82,6.793,6.793,0,0,1-8.176,2.954,6.366,6.366,0,0,1-1.736-.933,6.534,6.534,0,0,1-1.451-1.456,6.8,6.8,0,0,1,0-8.1,6.393,6.393,0,0,1,1.451-1.451,6.534,6.534,0,0,1,1.736-.933A6.768,6.768,0,0,1,284.8,89.15a6.337,6.337,0,0,1,.728,1.815,4.72,4.72,0,0,1,.126.7,3.27,3.27,0,0,1,.042.523v.322a.281.281,0,0,1,0,.084Z" transform="translate(-214.447 -64.551)" fill="#fff"/>
      <path id="Path_214" data-name="Path 214" d="M213.88,132.471a1.041,1.041,0,0,1-.229-.154c-.145-.107-.35-.271-.621-.467a19.39,19.39,0,0,1-2.119-1.974,7.663,7.663,0,0,1-2-3.789,18.1,18.1,0,0,1-.112-2.539,4.391,4.391,0,0,0-.728-2.5,15.362,15.362,0,0,0-1.825-1.979,7.429,7.429,0,0,1-1.5-2.067,9.159,9.159,0,0,1-.728-2.193,8.764,8.764,0,0,1-.191-2,12.374,12.374,0,0,1,.2-1.638,5.552,5.552,0,0,0,.028-1.227c-.079-.672-.21-1.031-.187-1.041a1.343,1.343,0,0,1,.1.257,5.4,5.4,0,0,1,.177.77,5.255,5.255,0,0,1,0,1.255c-.042.467-.154,1.027-.168,1.629a9.651,9.651,0,0,0,.933,4.093,7.233,7.233,0,0,0,1.47,2,15.084,15.084,0,0,1,1.867,2.007,4.06,4.06,0,0,1,.593,1.283,6.175,6.175,0,0,1,.173,1.349,18.882,18.882,0,0,0,.1,2.511,7.6,7.6,0,0,0,1.9,3.733,21.721,21.721,0,0,0,2.058,2.011l.635.485A1.322,1.322,0,0,1,213.88,132.471Z" transform="translate(-178.034 -76.891)" fill="#455a64"/>
      <path id="Path_215" data-name="Path 215" d="M198.357,136.12a.752.752,0,0,1,0,.191,3.3,3.3,0,0,1-.037.546,8.714,8.714,0,0,1-.467,1.965,9.59,9.59,0,0,1-10.574,6.333,8.811,8.811,0,0,1-1.946-.527c-.224-.084-.387-.177-.5-.229s-.168-.089-.163-.1a13.8,13.8,0,0,0,2.632.686,10.1,10.1,0,0,0,2.935-.051,9.305,9.305,0,0,0,6.029-3.607,10.081,10.081,0,0,0,1.428-2.562A14.36,14.36,0,0,0,198.357,136.12Z" transform="translate(-167.816 -91.409)" fill="#455a64"/>
      <path id="Path_216" data-name="Path 216" d="M195.536,131.42a2.739,2.739,0,0,1-.135.639,9.237,9.237,0,0,1-.658,1.657,10.761,10.761,0,0,1-3.976,4.261,11.6,11.6,0,0,1-5.6,1.643,10.734,10.734,0,0,1-1.778-.093,2.938,2.938,0,0,1-.639-.131,23.886,23.886,0,0,0,2.413.051,11.961,11.961,0,0,0,5.483-1.68,11.069,11.069,0,0,0,3.948-4.135,18.322,18.322,0,0,0,.943-2.212Z" transform="translate(-166.793 -88.902)" fill="#455a64"/>
      <path id="Path_217" data-name="Path 217" d="M180.9,120.152a1.759,1.759,0,0,1,.42-.243,3.988,3.988,0,0,1,.518-.233,6.574,6.574,0,0,1,.714-.252,9.8,9.8,0,0,1,1.927-.373,11.313,11.313,0,0,1,2.4.047,11.5,11.5,0,0,1,2.333.583,9.722,9.722,0,0,1,1.755.887,6.169,6.169,0,0,1,.611.439,3.458,3.458,0,0,1,.434.369,2.006,2.006,0,0,1,.331.355c-.033.037-.523-.467-1.47-1.017a10.53,10.53,0,0,0-1.741-.821,12.623,12.623,0,0,0-2.287-.551,12.306,12.306,0,0,0-2.333-.07,10.669,10.669,0,0,0-1.9.322C181.535,119.872,180.947,120.194,180.9,120.152Z" transform="translate(-165.806 -82.283)" fill="#455a64"/>
      <path id="Path_218" data-name="Path 218" d="M189.077,106.622c-.042.051-2.987-2.45-6.571-5.6s-6.459-5.712-6.417-5.763,2.987,2.455,6.575,5.6S189.114,106.576,189.077,106.622Z" transform="translate(-163.24 -69.616)" fill="#063"/>
      <path id="Path_219" data-name="Path 219" d="M232.73,106.623a4.273,4.273,0,0,1,2.231-1.783,8.543,8.543,0,0,1-1.12.887,9.235,9.235,0,0,1-1.111.9Z" transform="translate(-193.449 -74.726)" fill="#fff"/>
      <path id="Path_220" data-name="Path 220" d="M203.942,85.506a.576.576,0,0,1-.061-.093c-.042-.079-.093-.173-.159-.285a4.144,4.144,0,0,1-.364-1.195,5.973,5.973,0,0,1,1.232-4.34,6.874,6.874,0,0,1,1.041-1.125A8.315,8.315,0,0,1,207,77.535a12.1,12.1,0,0,1,3.444-1.185c2.525-.527,5.367-.4,8.26-.831a12.716,12.716,0,0,0,4.065-1.255,12.133,12.133,0,0,0,3.117-2.427,19.193,19.193,0,0,0,3.612-5.656c.765-1.769,1.246-3.267,1.6-4.275l.4-1.181.107-.3a.632.632,0,0,1,.042-.1v.107l-.084.313-.387,1.213a43.171,43.171,0,0,1-1.526,4.312,19.068,19.068,0,0,1-3.607,5.745,12.236,12.236,0,0,1-3.183,2.464,12.8,12.8,0,0,1-4.125,1.288c-2.931.439-5.759.3-8.255.812s-4.639,1.554-5.763,3.122a5.936,5.936,0,0,0-1.269,4.2A5.363,5.363,0,0,0,203.942,85.506Z" transform="translate(-177.765 -50.982)" fill="#fafafa"/>
      <path id="Path_221" data-name="Path 221" d="M191.051,132.239a6.921,6.921,0,0,1-.56,1.867,8.7,8.7,0,0,1-1.218,1.983,8.186,8.186,0,0,1-2.361,1.988,7.728,7.728,0,0,1-3.612.933,7.046,7.046,0,0,1-4.1-1.2,6.86,6.86,0,0,1-2.716-3.841,5.959,5.959,0,0,1-.14-2.525,6.122,6.122,0,0,1,.975-2.417,5.843,5.843,0,0,1,3.467-2.455v.233a9.366,9.366,0,0,1-4-1.629,7.7,7.7,0,0,1-2.548-3.057,7.2,7.2,0,0,1-.621-3.514,5.96,5.96,0,0,1,1.013-2.907,6.067,6.067,0,0,1,1.867-1.727,5.745,5.745,0,0,1,1.769-.681,4.914,4.914,0,0,1,1.185-.089l.3.033a.346.346,0,0,1,.1,0,6.174,6.174,0,0,0-1.577.121,5.665,5.665,0,0,0-1.717.7,5.95,5.95,0,0,0-1.783,1.708,5.8,5.8,0,0,0-.957,2.833,7.07,7.07,0,0,0,.625,3.411,7.518,7.518,0,0,0,2.487,2.959,9.287,9.287,0,0,0,3.911,1.582l.6.093-.593.14a5.6,5.6,0,0,0-3.323,2.361,5.88,5.88,0,0,0-.933,2.333,5.814,5.814,0,0,0,.131,2.427,6.641,6.641,0,0,0,2.618,3.733,6.865,6.865,0,0,0,3.967,1.181,7.555,7.555,0,0,0,3.533-.891,8.068,8.068,0,0,0,2.333-1.918,8.955,8.955,0,0,0,1.241-1.937,10.523,10.523,0,0,0,.518-1.363c.042-.149.075-.271.1-.369Z" transform="translate(-161.91 -79.184)" fill="#263238"/>
      <path id="Path_222" data-name="Path 222" d="M199.2,82.014a.429.429,0,0,1-.112-.051l-.327-.173a8.642,8.642,0,0,1-1.162-.8,9.667,9.667,0,0,1,.271-15.232,13.659,13.659,0,0,1,4.382-2.147,24.523,24.523,0,0,1,4.83-.854c1.568-.149,3.08-.219,4.517-.317a39.616,39.616,0,0,0,4.06-.467,18.471,18.471,0,0,0,3.421-.933,12.264,12.264,0,0,0,4.3-2.711,10.511,10.511,0,0,0,.9-1.069l.215-.294a.493.493,0,0,1,.079-.1,7.171,7.171,0,0,1-1.129,1.526,11.942,11.942,0,0,1-4.321,2.8,18.363,18.363,0,0,1-3.449.966,38.828,38.828,0,0,1-4.079.467,43.435,43.435,0,0,0-9.263,1.2,13.612,13.612,0,0,0-4.307,2.1,9.566,9.566,0,0,0-3.267,10.789,9.865,9.865,0,0,0,2.893,4.163,9.548,9.548,0,0,0,1.129.831l.308.191A.574.574,0,0,1,199.2,82.014Z" transform="translate(-172.805 -49.142)" fill="#263238"/>
      <path id="Path_223" data-name="Path 223" d="M305.355,70.325a.6.6,0,0,1-.434.215,1.209,1.209,0,0,1-1.139-.742,1.1,1.1,0,0,1,.065-1.017,1.9,1.9,0,0,1,.933-.789,2.963,2.963,0,0,1,2.851.467,3.061,3.061,0,0,1,1.059,1.367,3.234,3.234,0,0,1,.131,1.867,3.08,3.08,0,0,1-1.036,1.722,3.705,3.705,0,0,1-1.965.831,5.161,5.161,0,0,1-4.153-1.633,5.837,5.837,0,0,1-1.33-2.021,4.606,4.606,0,0,1-.233-2.478,10.905,10.905,0,0,1,.756-2.361c.313-.747.6-1.484.845-2.221a18.71,18.71,0,0,0,.933-4.377,13.218,13.218,0,0,0-.243-4.023,10.429,10.429,0,0,0-1.33-3.267,9.179,9.179,0,0,0-3.733-3.407,8.477,8.477,0,0,0-1.3-.467l-.355-.089a.42.42,0,0,1-.117-.042h.121l.359.065a7.252,7.252,0,0,1,1.335.443,9.118,9.118,0,0,1,3.822,3.407,10.482,10.482,0,0,1,1.4,3.267,13.324,13.324,0,0,1,.271,4.088,18.811,18.811,0,0,1-.933,4.433c-.243.747-.537,1.493-.849,2.235a11.1,11.1,0,0,0-.737,2.333,4.368,4.368,0,0,0,.224,2.333,5.512,5.512,0,0,0,1.274,1.941,4.942,4.942,0,0,0,3.953,1.582,3.514,3.514,0,0,0,1.867-.775,2.875,2.875,0,0,0,.98-1.6,3.09,3.09,0,0,0-.107-1.764,2.964,2.964,0,0,0-.989-1.3,2.8,2.8,0,0,0-2.7-.467,1.755,1.755,0,0,0-.882.719,1,1,0,0,0-.084.933,1.162,1.162,0,0,0,1.05.728.84.84,0,0,0,.42-.135Z" transform="translate(-226.959 -44.336)" fill="#263238"/>
      <g id="Group_66" data-name="Group 66" transform="translate(74.321 116.336)" opacity="0.2">
        <path id="Path_224" data-name="Path 224" d="M308.915,304.872c2.268-.639,4.62,1.4,6.921.873a5.032,5.032,0,0,0,3.089-2.889c.635-1.311.975-2.758,1.647-4.055a4.661,4.661,0,0,1,3.239-2.688c1.325-.177,2.9.443,3.883-.467a2.209,2.209,0,0,0,.051-2.833,6.433,6.433,0,0,0-2.5-1.783,14.206,14.206,0,0,0-3.225-1.279,4.76,4.76,0,0,0-3.374.392c-1.941,1.129-2.333,3.691-2.9,5.866a11.752,11.752,0,0,1-1.9,4.251A6.314,6.314,0,0,1,310,302.744a4.154,4.154,0,0,0-1.713.439c-.49.336-.681,1.176-.173,1.489" transform="translate(-307.816 -289.605)"/>
      </g>
      <path id="Path_225" data-name="Path 225" d="M284.84,281.827l8.5-2.963,7.62-11.914a5.073,5.073,0,0,1,3.323-2.249l13.668-2.581a2.245,2.245,0,0,1-1.171,2.739c-1.825,1.041-10.033,2.954-10.033,2.954l12.642-.215s.387,1.825-1.045,2.478-10.439.98-10.439.98l11.541,1.643s.065,1.834-2.571,1.867a76.491,76.491,0,0,1-7.77-.467.411.411,0,0,0-.467.341h0a.411.411,0,0,0,.313.467l7.667,1.811a1.027,1.027,0,0,1,.079,1.983,1.181,1.181,0,0,1-.429.028c-1.3-.131-9.109-1.12-9.109-1.12s-2.753,9.65-4.536,10.43a21.857,21.857,0,0,1-5.521.994l-7.933,3.141Z" transform="translate(-221.242 -158.61)" fill="#b78876"/>
      <path id="Path_226" data-name="Path 226" d="M338.768,273.754a3.036,3.036,0,0,1-.663.065l-1.811.089c-1.526.065-3.64.14-5.969.2l-3.29.084a7.2,7.2,0,0,0-2.609.373,2.8,2.8,0,0,0-1.339,1.106,4.791,4.791,0,0,0-.266.6.534.534,0,0,1,0-.173,1.94,1.94,0,0,1,.168-.467,2.8,2.8,0,0,1,1.358-1.218,7.079,7.079,0,0,1,2.669-.439l3.267-.1c2.333-.061,4.447-.107,5.973-.131h1.811a4.2,4.2,0,0,1,.7.014Z" transform="translate(-241.495 -164.803)" fill="#aa6550"/>
      <path id="Path_227" data-name="Path 227" d="M340.759,282.923a2.847,2.847,0,0,1-.611-.042l-1.652-.21c-1.4-.182-3.323-.467-5.446-.775-1.059-.149-2.072-.341-2.987-.42a4.037,4.037,0,0,0-2.333.42,3.664,3.664,0,0,0-1.209,1.083c-.224.317-.313.518-.331.509a.511.511,0,0,1,.047-.154,2.742,2.742,0,0,1,.205-.411,3.518,3.518,0,0,1,1.2-1.176,4.093,4.093,0,0,1,2.436-.495c.933.07,1.946.257,3.01.4,2.123.317,4.046.621,5.432.849l1.643.285A3.128,3.128,0,0,1,340.759,282.923Z" transform="translate(-243.295 -168.801)" fill="#aa6550"/>
      <path id="Path_228" data-name="Path 228" d="M334.88,289.529a9.368,9.368,0,0,1-1.335-.289c-.821-.2-1.951-.5-3.2-.756a5.6,5.6,0,0,0-.905-.135,1.647,1.647,0,0,0-.775.229,2.8,2.8,0,0,0-1.022.971,3.8,3.8,0,0,0-.406,1.269.793.793,0,0,1-.028-.373,2.476,2.476,0,0,1,.28-.98,2.86,2.86,0,0,1,1.064-1.083,1.941,1.941,0,0,1,.882-.271,5.9,5.9,0,0,1,.957.131c1.269.266,2.389.588,3.2.831A6.9,6.9,0,0,1,334.88,289.529Z" transform="translate(-243.833 -172.471)" fill="#aa6550"/>
      <path id="Path_229" data-name="Path 229" d="M149.59,306.187l25.5-3.136,44.729-7.271,5.773,14.508c-16.8,5.824-34.038,11.078-50.95,15.7a18.747,18.747,0,0,1-4.2.355C164.8,326.365,150.873,324.1,149.59,306.187Z" transform="translate(-149.107 -176.562)" fill="#063"/>
      <path id="Path_230" data-name="Path 230" d="M242.768,310.177a2.6,2.6,0,0,1-.117-.257c-.079-.182-.182-.434-.322-.761-.275-.681-.677-1.661-1.185-2.912L236.9,295.7l.107.061-21.732,3.631c-5.133.882-10.057,1.456-14.518,2.049-2.235.294-4.354.588-6.328.933q-1.484.238-2.856.467a23.489,23.489,0,0,0-2.6.569,10.617,10.617,0,0,0-6.067,4.928,11.056,11.056,0,0,0-.891,1.993c-.079.238-.131.425-.163.546a1.089,1.089,0,0,1-.065.187,5.6,5.6,0,0,1,.182-.747,10.434,10.434,0,0,1,.854-2.025,10.883,10.883,0,0,1,2.137-2.739,10.761,10.761,0,0,1,3.976-2.305,24.5,24.5,0,0,1,2.618-.593c.933-.168,1.867-.341,2.856-.5,1.979-.327,4.1-.635,6.328-.933,4.466-.6,9.384-1.181,14.508-2.067l21.742-3.579h.079l.028.075c1.736,4.405,3.164,8.036,4.163,10.575l1.139,2.931c.126.331.219.588.294.77A.805.805,0,0,1,242.768,310.177Z" transform="translate(-166.281 -176.45)" fill="#263238"/>
      <path id="Path_231" data-name="Path 231" d="M179,325.593a1.081,1.081,0,0,1,.205.042l.593.145c.523.112,1.293.289,2.3.411a25.152,25.152,0,0,0,8.535-.411c.887-.187,1.8-.439,2.758-.709l2.977-.84,6.533-1.867c4.615-1.344,9.679-2.851,14.975-4.5,8.867-2.753,17.014-5.451,23.333-7.63l-.056.126c-1.745-4.433-3.178-8.059-4.172-10.593-.49-1.255-.868-2.24-1.134-2.921-.126-.327-.219-.579-.289-.765s-.089-.261-.089-.261.042.084.117.252.177.434.313.756l1.181,2.9,4.251,10.565.037.093-.093.033c-6.328,2.212-14.466,4.923-23.333,7.681-5.3,1.647-10.364,3.15-14.984,4.485l-6.571,1.867-2.982.821c-.933.266-1.867.518-2.767.7a24.873,24.873,0,0,1-8.587.341A16.272,16.272,0,0,1,179,325.593Z" transform="translate(-164.793 -176.583)" fill="#263238"/>
      <path id="Path_232" data-name="Path 232" d="M181.529,311.344a3.054,3.054,0,0,1-.639.1l-1.75.173-5.768.565-5.768.616-1.75.182a2.912,2.912,0,0,1-.644.037,3.872,3.872,0,0,1,.635-.131c.411-.065,1-.154,1.741-.257,1.47-.205,3.5-.467,5.759-.686s4.3-.4,5.782-.495c.742-.051,1.344-.084,1.759-.1A3.788,3.788,0,0,1,181.529,311.344Z" transform="translate(-157.438 -184.856)" fill="#263238"/>
    </g>
    <g id="freepik--Plant--inject-43" transform="translate(52.28 194.466)">
      <path id="Path_233" data-name="Path 233" d="M94.843,389.764c-1.288,1.843-3.8,1.232-4.961.107a9.377,9.377,0,0,1-2.1-4.307c-1.022-3.551-2.053-7.275-1.293-10.892a6.067,6.067,0,0,1,1.4-2.963,3.155,3.155,0,0,1,3-.994,4.611,4.611,0,0,1,2.618,2.749,25.955,25.955,0,0,1,2.567,11.144,9.047,9.047,0,0,1-1.218,5.157" transform="translate(-78.94 -370.65)" fill="#063"/>
      <g id="Group_67" data-name="Group 67" transform="translate(7.287)" opacity="0.2">
        <path id="Path_234" data-name="Path 234" d="M94.843,389.764c-1.288,1.843-3.8,1.232-4.961.107a9.377,9.377,0,0,1-2.1-4.307c-1.022-3.551-2.053-7.275-1.293-10.892a6.067,6.067,0,0,1,1.4-2.963,3.155,3.155,0,0,1,3-.994,4.611,4.611,0,0,1,2.618,2.749,25.955,25.955,0,0,1,2.567,11.144,9.047,9.047,0,0,1-1.218,5.157" transform="translate(-86.227 -370.65)"/>
      </g>
      <path id="Path_235" data-name="Path 235" d="M81.68,430.416a11.181,11.181,0,0,0-6.935-.84,5.735,5.735,0,0,0-3.425,1.531,2.471,2.471,0,0,0-.037,3.421,3.3,3.3,0,0,0,2.161.546c1.834-.023,3.869-.345,5.334.761.835.625,1.4,1.675,2.389,1.983a2.361,2.361,0,0,0,2.6-1.148,4.027,4.027,0,0,0,.294-2.977,4.545,4.545,0,0,0-2.38-3.276Z" transform="translate(-70.612 -401.973)" fill="#063"/>
      <path id="Path_236" data-name="Path 236" d="M110.726,399.179a6.7,6.7,0,0,1-1.041-6.169,11.935,11.935,0,0,1,3.649-5.3,19.679,19.679,0,0,1,6.533-3.859,6.861,6.861,0,0,1,2.94-.5,3.075,3.075,0,0,1,2.469,1.493c.691,1.311.028,2.907-.686,4.2a49.4,49.4,0,0,1-4.3,6.533,11.647,11.647,0,0,1-4.723,4.051c-1.96.751-4,.663-5.045-.7" transform="translate(-91.281 -377.419)" fill="#063"/>
      <path id="Path_237" data-name="Path 237" d="M93.861,451.8a3.813,3.813,0,0,1-.117-.835c-.061-.607-.135-1.372-.224-2.282a33.6,33.6,0,0,0-.513-3.355,25.747,25.747,0,0,0-1.218-3.953,14.612,14.612,0,0,0-2.021-3.579,7.569,7.569,0,0,0-2.553-2.123,7.124,7.124,0,0,0-2.165-.667,4.1,4.1,0,0,1-.831-.121,3.943,3.943,0,0,1,.845,0,6.535,6.535,0,0,1,2.245.583A7.542,7.542,0,0,1,90,437.609a14.235,14.235,0,0,1,2.1,3.649,24.736,24.736,0,0,1,1.209,4.023,28.215,28.215,0,0,1,.467,3.393c.075.971.1,1.755.112,2.3A3.945,3.945,0,0,1,93.861,451.8Z" transform="translate(-77.87 -404.897)" fill="#263238"/>
      <path id="Path_238" data-name="Path 238" d="M99.687,424.237a1.577,1.577,0,0,1-.023-.387v-1.115c0-.961,0-2.357-.051-4.079-.084-3.444-.383-8.2-.933-13.43s-1.358-9.931-2.044-13.3c-.168-.849-.331-1.61-.467-2.277s-.275-1.241-.4-1.708-.191-.8-.261-1.083a1.866,1.866,0,0,1-.07-.383,1.506,1.506,0,0,1,.135.364c.089.28.191.635.327,1.064s.289,1.036.467,1.7.359,1.423.541,2.268a126.006,126.006,0,0,1,2.142,13.318c.574,5.241.835,10.01.859,13.463,0,1.727,0,3.127-.061,4.088-.028.467-.051.821-.07,1.111A1.534,1.534,0,0,1,99.687,424.237Z" transform="translate(-83.854 -379.088)" fill="#263238"/>
      <path id="Path_239" data-name="Path 239" d="M104.465,418.266a7.562,7.562,0,0,1,0-1.157c.042-.747.145-1.825.355-3.145a41.446,41.446,0,0,1,1.022-4.578,40.856,40.856,0,0,1,1.913-5.423,28.933,28.933,0,0,1,5.628-8.759,13.93,13.93,0,0,1,1.321-1.227,7.227,7.227,0,0,1,.565-.467l.513-.355a7.978,7.978,0,0,1,.98-.625,34.67,34.67,0,0,0-3.2,2.861,30.4,30.4,0,0,0-5.488,8.727,42.908,42.908,0,0,0-1.923,5.367,46.484,46.484,0,0,0-1.092,4.536c-.238,1.307-.378,2.375-.467,3.113A7.029,7.029,0,0,1,104.465,418.266Z" transform="translate(-88.655 -382.32)" fill="#263238"/>
    </g>
    <g id="freepik--Heart--inject-43" transform="translate(174.019 73.834)">
      <path id="Path_240" data-name="Path 240" d="M361.4,120.759c-.467-3.7-3.589-7.149-7.317-7.149a8.164,8.164,0,0,0-5.8,2.758,14.675,14.675,0,0,0-1.47,1.741,15.017,15.017,0,0,0-1.1-2,8.2,8.2,0,0,0-5.133-3.845c-3.659-.728-7.4,2.035-8.582,5.572s-.2,7.5,1.741,10.686a20.957,20.957,0,0,0,11.419,9.413c4.233-.541,9.907-4.3,12.432-7.042S361.853,124.46,361.4,120.759Z" transform="translate(-331.486 -112.149)" fill="#063"/>
      <path id="Path_241" data-name="Path 241" d="M360.641,136.633h-.121l-.359-.023-1.4-.117-5.068-.467.089-.056-2.109,5.507-.131.331-.084-.345c-.639-2.674-1.363-5.665-2.123-8.82l-.686-2.87.215.047-3.869,5.32-.037.047h-.042l-8.909-.933-2.52-.28-.667-.084-.229-.042a1.257,1.257,0,0,1,.233,0l.667.051,2.529.219,8.913.84-.1.047,3.85-5.334.154-.21.061.252c.224.933.467,1.9.691,2.879.751,3.155,1.465,6.151,2.1,8.825h-.215l2.156-5.493.023-.061h.065l5.063.541,1.377.163.355.047Z" transform="translate(-332.075 -121.382)" fill="#fafafa"/>
    </g>
    <g id="freepik--Tube--inject-43" transform="translate(61.526 118.438)">
      <path id="Path_242" data-name="Path 242" d="M.014,0H7.887V4.527A2.077,2.077,0,0,1,5.81,6.6H2.077A2.077,2.077,0,0,1,0,4.527V0Z" transform="translate(1.875 36.661) rotate(16.5)" fill="#063"/>
      <path id="Path_243" data-name="Path 243" d="M0,0H7.873V4.531A2.067,2.067,0,0,1,5.805,6.6H2.072A2.067,2.067,0,0,1,0,4.531V0Z" transform="translate(1.889 36.665) rotate(16.5)" opacity="0.3"/>
      <path id="Path_244" data-name="Path 244" d="M99.48,297.825a31.377,31.377,0,0,1-3.827-1,32.206,32.206,0,0,1-3.733-1.241,32.227,32.227,0,0,1,3.827,1.008A32.791,32.791,0,0,1,99.48,297.825Z" transform="translate(-91.222 -254.584)" fill="#263238"/>
      <path id="Path_245" data-name="Path 245" d="M97,296.209h0a.933.933,0,0,1,1.153-.658l1.512.467a.933.933,0,0,1,.607,1.176h0Z" transform="translate(-93.931 -254.55)" fill="#263238"/>
      <path id="Path_246" data-name="Path 246" d="M100.219,207.73l-8.4,34.724a2.954,2.954,0,0,0,1.965,3.565l5.5,1.633a2.949,2.949,0,0,0,3.547-1.811l13.192-33.436Z" transform="translate(-91.116 -207.73)" fill="#063"/>
      <path id="Path_247" data-name="Path 247" d="M123.87,218.43c0,.065-3.481-.905-7.733-2.165s-7.686-2.333-7.667-2.4,3.481.905,7.737,2.165S123.888,218.365,123.87,218.43Z" transform="translate(-100.049 -211.001)" fill="#263238"/>
      <path id="Path_248" data-name="Path 248" d="M111.07,211.451a4.667,4.667,0,0,1,.308-1.461,4.854,4.854,0,0,1,.537-1.4,4.578,4.578,0,0,1-.3,1.461A4.634,4.634,0,0,1,111.07,211.451Z" transform="translate(-101.435 -208.189)" fill="#263238"/>
      <path id="Path_249" data-name="Path 249" d="M113.76,212.251a8.974,8.974,0,0,1,.845-2.851,4.667,4.667,0,0,1-.308,1.461,4.788,4.788,0,0,1-.537,1.391Z" transform="translate(-102.87 -208.621)" fill="#263238"/>
      <path id="Path_250" data-name="Path 250" d="M116.44,213.041a9.463,9.463,0,0,1,.845-2.861,4.579,4.579,0,0,1-.3,1.461A4.634,4.634,0,0,1,116.44,213.041Z" transform="translate(-104.3 -209.037)" fill="#263238"/>
      <path id="Path_251" data-name="Path 251" d="M119.13,213.841a8.974,8.974,0,0,1,.845-2.851,9.306,9.306,0,0,1-.845,2.851Z" transform="translate(-105.734 -209.469)" fill="#263238"/>
      <path id="Path_252" data-name="Path 252" d="M121.81,214.631a9.465,9.465,0,0,1,.845-2.861,4.578,4.578,0,0,1-.3,1.461A4.634,4.634,0,0,1,121.81,214.631Z" transform="translate(-107.164 -209.885)" fill="#263238"/>
      <path id="Path_253" data-name="Path 253" d="M124.5,215.431a8.974,8.974,0,0,1,.845-2.851A9.3,9.3,0,0,1,124.5,215.431Z" transform="translate(-108.598 -210.317)" fill="#263238"/>
      <path id="Path_254" data-name="Path 254" d="M127.18,216.221a9.464,9.464,0,0,1,.845-2.861,4.578,4.578,0,0,1-.3,1.461,4.634,4.634,0,0,1-.541,1.4Z" transform="translate(-110.028 -210.733)" fill="#263238"/>
      <path id="Path_255" data-name="Path 255" d="M129.86,217.011a4.834,4.834,0,0,1,.308-1.461,4.573,4.573,0,0,1,.541-1.4,4.835,4.835,0,0,1-.308,1.461A4.574,4.574,0,0,1,129.86,217.011Z" transform="translate(-111.457 -211.154)" fill="#263238"/>
      <path id="Path_256" data-name="Path 256" d="M132.55,217.811a4.559,4.559,0,0,1,.3-1.461,4.783,4.783,0,0,1,.541-1.4,9.464,9.464,0,0,1-.845,2.861Z" transform="translate(-112.892 -211.581)" fill="#263238"/>
      <path id="Path_257" data-name="Path 257" d="M135.23,218.611a9.3,9.3,0,0,1,.845-2.851A8.974,8.974,0,0,1,135.23,218.611Z" transform="translate(-114.321 -212.013)" fill="#263238"/>
      <path id="Path_258" data-name="Path 258" d="M137.92,219.4a4.56,4.56,0,0,1,.3-1.461,4.634,4.634,0,0,1,.541-1.4,9.465,9.465,0,0,1-.845,2.861Z" transform="translate(-115.756 -212.429)" fill="#263238"/>
      <path id="Path_259" data-name="Path 259" d="M140.6,220.2a9.305,9.305,0,0,1,.845-2.851A8.974,8.974,0,0,1,140.6,220.2Z" transform="translate(-117.185 -212.861)" fill="#263238"/>
      <path id="Path_260" data-name="Path 260" d="M111.667,244.358l.593-1.988,1.965.583-.551,1.862,1.605.471-.579,1.955-1.778-.523-.5,1.7-1.643-.49.541-1.829-1.937-.574.513-1.731Z" transform="translate(-100.534 -226.205)" fill="#fff"/>
      <path id="Path_261" data-name="Path 261" d="M114.773,244.875c-.028,0,.1-.373.135-1.059a4.438,4.438,0,0,0-.793-2.716,4.111,4.111,0,0,0-1.465-1.3,4.06,4.06,0,0,0-2.189-.434,4.2,4.2,0,0,0-2.277.933,4.466,4.466,0,0,0-1.433,4.835,4.167,4.167,0,0,0,1.4,2.016,4.088,4.088,0,0,0,2.072.826,4.139,4.139,0,0,0,1.937-.285,4.415,4.415,0,0,0,2.142-1.867c.35-.593.439-.971.467-.961a1.026,1.026,0,0,1-.065.271,3.789,3.789,0,0,1-.317.737,4.447,4.447,0,0,1-2.161,1.965,4.2,4.2,0,0,1-4.2-.523,4.372,4.372,0,0,1-1.493-2.119,4.667,4.667,0,0,1,1.493-5.087,4.349,4.349,0,0,1,2.408-.966,4.228,4.228,0,0,1,2.3.467,4.317,4.317,0,0,1,1.517,1.377,4.433,4.433,0,0,1,.742,2.8,4.06,4.06,0,0,1-.135.793A.976.976,0,0,1,114.773,244.875Z" transform="translate(-98.89 -224.477)" fill="#fff"/>
    </g>
  </g>
</svg>
